<svg xmlns:xlink="http://www.w3.org/1999/xlink" width="61.8ex" height="17.176ex" style="vertical-align: -7.785ex; margin-bottom: -0.219ex;" viewBox="0 -3948.7 26608.1 7395.2" role="img" focusable="false" xmlns="http://www.w3.org/2000/svg">
<defs>
<path stroke-width="1" id="E1-STIXWEBNORMALI-1D45A" d="M667 107l13 -11c-32 -54 -84 -104 -131 -104c-22 0 -39 10 -39 49c0 7 1 17 6 37l56 221c4 14 6 23 6 40c0 20 -6 38 -24 38c-54 0 -164 -181 -179 -242l-34 -135h-79l77 299c2 9 5 25 5 40c0 20 -5 38 -23 38c-52 0 -162 -181 -178 -242l-35 -135h-78l95 374 c0 18 -6 31 -33 31c-8 0 -19 -1 -27 -2l-2 14l157 24l-44 -169h6c94 143 154 169 192 169c37 0 55 -37 55 -81c0 -17 -3 -32 -9 -52l-10 -36h5c29 52 81 114 130 147c22 15 41 22 61 22c36 0 54 -26 54 -71c0 -18 -1 -37 -7 -61l-61 -231c-1 -3 -2 -9 -2 -12 c0 -8 6 -12 15 -12c17 0 43 16 62 53Z"></path>
<path stroke-width="1" id="E1-STIXWEBNORMALI-1D461" d="M283 438l-10 -38h-70l-78 -320c-1 -3 -2 -8 -2 -11c0 -6 3 -12 16 -12c0 0 23 2 60 52l13 -11c-24 -31 -74 -107 -133 -107c-31 0 -39 25 -39 52c0 13 2 26 5 37l81 320h-77l5 29c75 14 136 51 177 138h13l-31 -129h70Z"></path>
<path stroke-width="1" id="E1-STIXWEBMAIN-3D" d="M637 320h-589v66h589v-66zM637 120h-589v66h589v-66Z"></path>
<path stroke-width="1" id="E1-STIXWEBNORMALI-1D6FD" d="M47 -105l116 479c34 142 57 173 133 239c34 29 77 55 123 55c55 0 99 -46 99 -114c0 -73 -38 -151 -100 -179v-1c41 -11 56 -55 56 -102c0 -66 -30 -146 -63 -188c-44 -56 -110 -96 -192 -96c-25 0 -43 4 -64 21l-28 -122c-6 -28 -18 -59 -23 -70h-79c7 16 17 57 22 78z M266 459l-102 -419c17 -18 37 -23 49 -23c117 0 176 181 176 278c0 34 -5 63 -21 63c-19 0 -24 -8 -42 -8s-32 10 -32 22c0 11 11 27 47 27c8 0 30 -5 44 -5c44 0 60 99 60 124c0 46 -17 100 -61 100c-75 0 -97 -74 -118 -159Z"></path>
<path stroke-width="1" id="E1-STIXWEBMAIN-31" d="M394 0h-276v15c74 4 95 25 95 80v449c0 34 -9 49 -30 49c-10 0 -27 -5 -45 -12l-27 -10v14l179 91l9 -3v-597c0 -43 20 -61 95 -61v-15Z"></path>
<path stroke-width="1" id="E1-STIXWEBMAIN-2212" d="M621 220h-557v66h557v-66Z"></path>
<path stroke-width="1" id="E1-STIXWEBMAIN-2B" d="M636 220h-261v-261h-66v261h-261v66h261v261h66v-261h261v-66Z"></path>
<path stroke-width="1" id="E1-STIXWEBMAIN-28" d="M304 -161l-12 -16c-158 90 -244 259 -244 429c0 185 87 329 247 424l9 -16c-139 -119 -170 -212 -170 -405c0 -186 30 -299 170 -416Z"></path>
<path stroke-width="1" id="E1-STIXWEBMAIN-29" d="M29 660l12 16c153 -92 244 -259 244 -429c0 -185 -88 -327 -247 -424l-9 16c142 117 170 211 170 405c0 187 -25 302 -170 416Z"></path>
<path stroke-width="1" id="E1-STIXWEBNORMALI-1D454" d="M492 413l-13 -45h-81c13 -15 17 -28 17 -50c0 -75 -53 -137 -141 -148c-59 -8 -88 -33 -88 -58c0 -63 233 -23 233 -148c0 -71 -66 -151 -215 -151c-134 0 -184 57 -184 115s55 88 117 108c-17 11 -24 30 -24 47c0 38 37 87 85 87v4c-67 15 -94 62 -94 109 c0 79 68 158 174 158c42 0 73 -13 88 -28h126zM336 349c0 37 -10 62 -54 62c-54 0 -98 -71 -98 -139c0 -46 12 -81 56 -81c71 0 96 102 96 158zM349 -69c0 78 -132 73 -192 95c-8 -5 -18 -10 -26 -16c-26 -19 -48 -45 -48 -72c0 -47 44 -97 139 -97c91 0 127 46 127 90Z"></path>
<path stroke-width="1" id="E1-STIXWEBMAIN-6D" d="M775 0h-218v15c56 6 65 17 65 75v206c0 79 -20 112 -77 112c-47 0 -77 -18 -107 -61v-252c0 -65 15 -79 72 -80v-15h-224v15c57 4 68 10 68 71v211c0 69 -22 111 -65 111c-37 0 -86 -19 -106 -43c-7 -8 -13 -15 -13 -17v-278c0 -43 15 -53 68 -55v-15h-222v15 c56 1 70 15 70 73v248c0 49 -9 66 -35 66c-11 0 -19 -1 -32 -4v17c55 15 88 26 139 45l8 -3v-74h2c66 68 108 77 153 77c54 0 88 -27 106 -84c54 58 105 84 163 84c81 0 116 -62 116 -180v-203c0 -45 13 -58 43 -60l26 -2v-15Z"></path>
<path stroke-width="1" id="E1-STIXWEBMAIN-65" d="M408 164l16 -7c-39 -109 -109 -167 -209 -167c-118 0 -190 89 -190 227c0 141 81 243 207 243c62 0 107 -24 139 -69c20 -28 30 -60 34 -114h-308c5 -76 10 -115 46 -163c28 -37 65 -55 111 -55c67 0 105 31 154 105zM99 309h204c-11 81 -32 115 -98 115 c-56 0 -95 -40 -106 -115Z"></path>
<path stroke-width="1" id="E1-STIXWEBMAIN-61" d="M442 66v-28c-30 -38 -56 -48 -90 -48c-37 0 -59 20 -64 73h-1c-53 -60 -102 -73 -145 -73c-62 0 -105 38 -105 104c0 52 31 91 70 117c30 20 67 39 180 81v54c0 62 -33 90 -78 90c-40 0 -70 -22 -70 -49c0 -18 6 -21 6 -42c0 -19 -20 -41 -46 -41c-21 0 -43 19 -43 46 c0 26 16 58 51 80c28 18 70 30 115 30c56 0 94 -16 118 -45s28 -50 28 -111v-191c0 -46 13 -66 31 -66c16 0 26 5 43 19zM287 127v141c-62 -22 -103 -43 -128 -66c-24 -22 -34 -46 -34 -77c0 -53 30 -77 69 -77c20 0 41 5 58 16c29 20 35 34 35 63Z"></path>
<path stroke-width="1" id="E1-STIXWEBMAIN-6E" d="M485 0h-208l1 15c50 4 62 24 62 90v199c0 71 -24 101 -73 101c-33 0 -57 -12 -103 -57v-276c0 -39 14 -53 65 -57v-15h-211v15c51 4 62 20 62 79v243c0 49 -7 65 -35 65c-11 0 -22 -1 -29 -4v17c55 16 88 27 137 45l8 -3v-78h1c52 59 98 81 144 81c76 0 118 -55 118 -154 v-221c0 -54 12 -65 61 -70v-15Z"></path>
<path stroke-width="1" id="E1-STIXWEBMAIN-6F" d="M470 231c0 -139 -90 -241 -225 -241c-121 0 -216 99 -216 238s90 232 225 232c122 0 216 -91 216 -229zM380 204c0 68 -18 137 -50 178c-24 30 -52 50 -95 50c-69 0 -116 -59 -116 -159c0 -79 16 -151 53 -205c22 -32 54 -50 90 -50c74 0 118 70 118 186Z"></path>
<path stroke-width="1" id="E1-STIXWEBMAIN-66" d="M21 450h82c1 80 9 116 35 161s78 72 141 72c60 0 104 -26 104 -62c0 -23 -18 -41 -42 -41c-17 0 -29 9 -45 36c-18 29 -31 39 -53 39c-38 0 -56 -30 -56 -89v-116h122v-32h-122v-314c0 -75 11 -86 93 -89v-15h-260v15c72 4 83 16 83 89v314h-82v32Z"></path>
<path stroke-width="1" id="E1-STIXWEBMAIN-67" d="M470 388h-83c14 -32 19 -55 19 -84c0 -52 -16 -89 -52 -116c-32 -24 -69 -39 -104 -39c-6 0 -20 1 -38 3l-19 2c-27 -8 -60 -43 -60 -63c0 -16 24 -24 78 -27l129 -6c74 -3 121 -45 121 -107c0 -40 -19 -73 -60 -105c-52 -40 -128 -64 -200 -64c-96 0 -173 44 -173 97 c0 37 26 70 98 122c-42 20 -53 31 -53 53c0 20 13 40 46 69c15 13 29 26 43 40c-67 33 -93 71 -93 134c0 91 74 163 167 163c26 0 53 -5 80 -15l22 -8c20 -7 35 -10 55 -10h77v-39zM152 338v-3c0 -96 41 -161 103 -161c45 0 74 35 74 90c0 41 -11 86 -30 121 c-16 30 -42 47 -73 47c-46 0 -74 -35 -74 -94zM433 -64c0 37 -33 49 -124 49c-49 0 -128 6 -162 13c-40 -48 -49 -63 -49 -86c0 -44 57 -73 145 -73c114 0 190 39 190 97Z"></path>
<path stroke-width="1" id="E1-STIXWEBMAIN-72" d="M160 458v-92c50 72 78 94 120 94c34 0 55 -20 55 -53c0 -28 -15 -45 -39 -45c-13 0 -24 5 -40 20c-11 10 -20 15 -26 15c-28 0 -70 -50 -70 -82v-225c0 -57 17 -72 85 -75v-15h-240v15c64 12 71 19 71 69v250c0 44 -9 60 -34 60c-12 0 -21 -1 -35 -4v16 c59 19 95 33 148 54Z"></path>
<path stroke-width="1" id="E1-STIXWEBMAIN-64" d="M491 42l-147 -52l-4 3v64c-34 -47 -72 -67 -128 -67c-111 0 -185 87 -185 215c0 142 93 255 208 255c40 0 67 -11 105 -43v156c0 41 -9 51 -46 51c-8 0 -14 0 -22 -1v16c64 17 99 27 147 44l5 -2v-567c0 -46 8 -57 44 -57c5 0 6 0 23 1v-16zM340 102v230 c0 53 -48 100 -102 100c-76 0 -125 -74 -125 -187c0 -123 54 -203 138 -203c31 0 56 11 74 32c9 10 15 21 15 28Z"></path>
<path stroke-width="1" id="E1-STIXWEBMAIN-73" d="M156 301l104 -63c64 -39 88 -66 88 -123c0 -67 -64 -125 -140 -125c-21 0 -50 1 -73 9c-24 8 -35 9 -46 9c-12 0 -18 -2 -24 -12h-13v157h16c21 -97 58 -141 127 -141c51 0 83 33 83 74c0 31 -20 57 -53 75l-54 30c-83 46 -120 94 -120 145c0 79 56 123 138 123 c24 0 46 -1 67 -11c11 -5 21 -8 28 -8c4 0 8 1 16 10h11l5 -136h-15c-23 90 -53 123 -113 123c-43 0 -75 -21 -75 -68c0 -22 15 -51 43 -68Z"></path>
<path stroke-width="1" id="E1-STIXWEBNORMALI-1D463" d="M247 454l-89 -326c-3 -10 -4 -21 -4 -32c0 -38 20 -66 60 -66c108 0 178 113 210 203c8 24 15 49 15 74c0 74 -61 65 -61 109c0 34 25 42 54 42c42 0 47 -51 47 -83c0 -99 -39 -200 -97 -280c-43 -60 -120 -104 -194 -104c-64 0 -116 20 -116 93c0 21 3 42 9 62l58 210 c2 8 5 17 5 25c0 20 -44 20 -57 20v15c52 13 106 20 156 42Z"></path>
<path stroke-width="1" id="E1-STIXWEBMAIN-32" d="M474 137l-54 -137h-391v12l178 189c94 99 130 175 130 260c0 91 -54 141 -139 141c-72 0 -107 -32 -147 -130l-21 5c21 117 85 199 208 199c113 0 185 -77 185 -176c0 -79 -39 -154 -128 -248l-165 -176h234c42 0 63 11 96 67Z"></path>
<path stroke-width="1" id="E1-STIXWEBMAIN-76" d="M477 450v-15c-30 -3 -38 -11 -65 -78l-128 -321c-15 -37 -22 -50 -28 -50s-11 8 -18 26c-3 5 -4 12 -8 21l-120 287c-43 103 -53 113 -91 115v15h196v-15c-34 -3 -46 -10 -46 -27c0 -10 3 -23 9 -38l102 -256l99 259c4 10 6 20 6 30c0 19 -15 29 -47 32v15h139Z"></path>
<path stroke-width="1" id="E1-STIXWEBMAIN-69" d="M180 632c0 -29 -22 -51 -52 -51c-28 0 -50 22 -50 51c0 28 23 51 51 51c29 0 51 -23 51 -51zM253 0h-237v15c69 4 79 13 79 89v227c0 47 -8 63 -33 63c-9 0 -24 0 -42 -5v16l155 55l4 -4v-351c0 -74 8 -85 74 -90v-15Z"></path>
<path stroke-width="1" id="E1-STIXWEBMAIN-63" d="M398 156l14 -9c-32 -62 -52 -91 -82 -115c-34 -28 -72 -42 -115 -42c-111 0 -190 93 -190 222c0 83 30 152 84 197c40 33 88 51 135 51c84 0 154 -47 154 -103c0 -23 -21 -42 -47 -42c-22 0 -40 17 -48 46l-6 22c-10 37 -23 48 -59 48c-81 0 -136 -70 -136 -174 c0 -115 63 -195 155 -195c57 0 93 24 141 94Z"></path>
<path stroke-width="1" id="E1-STIXWEBMAIN-302" d="M-75 507h-34l-122 103l-121 -103h-34l124 167h62Z"></path>
<path stroke-width="1" id="E1-STIXWEBMAIN-2F" d="M287 676l-228 -690h-68l229 690h67Z"></path>
<path stroke-width="1" id="E1-STIXWEBMAIN-2C" d="M83 -141l-10 19c55 37 83 74 83 107c0 7 -6 13 -14 13s-18 -4 -29 -4c-37 0 -58 17 -58 51s24 57 60 57c45 0 80 -35 80 -87c0 -60 -43 -123 -112 -156Z"></path>
<path stroke-width="1" id="E1-STIXWEBMAIN-62" d="M153 681v-305c21 51 74 84 135 84c107 0 180 -96 180 -220c0 -148 -102 -250 -234 -250c-81 0 -165 32 -165 66v510c0 50 -8 58 -49 58c-7 0 -12 -1 -17 -2v17l30 9c47 14 73 20 115 35zM153 318v-244c0 -32 45 -52 97 -52c39 0 71 15 93 43c24 30 37 74 37 132 c0 60 -14 118 -39 153c-21 30 -53 47 -89 47c-53 0 -99 -37 -99 -79Z"></path>
<path stroke-width="1" id="E1-STIXWEBMAIN-74" d="M266 77l13 -11c-33 -52 -71 -76 -121 -76c-58 0 -88 43 -88 127v301h-53c-3 2 -4 4 -4 7c0 6 6 12 17 19c26 15 59 52 97 107c6 9 14 18 20 28c5 0 7 -3 7 -13v-116h101v-32h-101v-286c0 -64 15 -90 52 -90c22 0 38 9 60 35Z"></path>
<path stroke-width="1" id="E1-STIXWEBNORMALI-1D464" d="M531 450l-80 -289c-6 -23 -12 -46 -12 -70c0 -39 19 -61 59 -61c108 0 164 115 195 203c8 24 15 49 15 74c0 74 -59 66 -61 109c-2 36 30 42 54 42c42 0 47 -51 47 -83c0 -146 -105 -384 -276 -384c-69 0 -111 28 -111 100c0 42 12 85 23 125 c-40 -89 -122 -225 -234 -225c-56 0 -78 34 -78 87c0 33 11 64 19 95l47 177c3 9 5 19 5 29c0 24 -38 22 -54 22v15c53 9 105 23 155 44l4 -3l-81 -307c-3 -13 -11 -45 -11 -73c0 -26 6 -47 28 -47c58 1 129 114 153 151c53 81 79 159 110 269h84Z"></path>
<path stroke-width="1" id="E1-STIXWEBNORMALI-1D702" d="M173 251h2l57 73c54 69 104 117 163 117c39 0 60 -20 60 -54c0 -22 -9 -52 -15 -78l-75 -313c-15 -63 -23 -113 -23 -144c0 -14 1 -27 5 -35h-76c-9 11 -11 28 -11 46c0 41 14 98 99 436c3 10 8 31 8 48s-11 29 -28 29c-40 0 -170 -169 -200 -271l-31 -105h-78l77 304 c6 25 13 45 13 59c0 9 -2 13 -13 13c-22 0 -44 -29 -60 -50l-13 10c5 7 22 34 46 58c25 25 62 47 84 47c32 0 41 -17 41 -41c0 -42 -23 -111 -32 -149Z"></path>
<path stroke-width="1" id="E1-STIXWEBMAIN-221A" d="M963 973l-478 -1232h-32l-202 530c-17 45 -37 59 -62 59c-17 0 -43 -11 -65 -31l-12 20l156 124h19l204 -536h4l414 1066h54Z"></path>
<path stroke-width="1" id="E1-STIXWEBNORMALI-1D700" d="M444 372l-14 -8c-25 36 -60 47 -120 47c-63 0 -139 -44 -139 -113c0 -32 33 -51 78 -51c21 0 37 9 62 9c22 0 38 -7 38 -20c0 -17 -10 -31 -43 -31c-9 0 -40 6 -61 6c-49 0 -133 -33 -133 -103c0 -61 65 -78 125 -78c53 0 118 26 151 73l13 -10 c-42 -59 -99 -104 -210 -104c-124 0 -166 50 -166 102c0 73 49 120 116 137c-35 12 -58 33 -58 66c0 81 83 147 225 147c62 0 123 -33 136 -69Z"></path>
<path stroke-width="1" id="E1-STIXWEBNORMALI-1D706" d="M495 124h16c-22 -82 -55 -140 -104 -140c-28 0 -54 38 -54 95c0 61 9 115 16 218l-218 -297h-101l319 431c1 8 2 20 2 31c0 7 0 35 -1 46c-5 67 -27 96 -56 96c-15 0 -32 -18 -53 -74h-16c17 63 49 138 104 138c36 0 55 -46 55 -136v-383c0 -36 2 -101 38 -101 c15 0 32 19 53 76Z"></path>
<path stroke-width="1" id="E1-STIXWEBSIZE4-28" d="M732 -453v-56c-355 286 -608 863 -608 1538c0 673 253 1251 608 1537v-56c-224 -231 -478 -704 -478 -1481c0 -746 254 -1250 478 -1482Z"></path>
<path stroke-width="1" id="E1-STIXWEBSIZE4-29" d="M76 2510v56c355 -286 608 -856 608 -1537c0 -667 -253 -1252 -608 -1538v56c224 231 478 726 478 1483c0 766 -254 1248 -478 1480Z"></path>
</defs>
<g stroke="currentColor" fill="currentColor" stroke-width="0" transform="matrix(1 0 0 -1 0 0)">
<g transform="translate(167,0)">
<g transform="translate(-11,0)">
<g transform="translate(903,3051)">
 <use xlink:href="#E1-STIXWEBNORMALI-1D45A" x="0" y="0"></use>
 <use transform="scale(0.707)" xlink:href="#E1-STIXWEBNORMALI-1D461" x="1004" y="-213"></use>
</g>
<g transform="translate(1107,1709)">
 <use xlink:href="#E1-STIXWEBNORMALI-1D463" x="0" y="0"></use>
 <use transform="scale(0.707)" xlink:href="#E1-STIXWEBNORMALI-1D461" x="716" y="-213"></use>
</g>
<g transform="translate(903,364)">
 <use xlink:href="#E1-STIXWEBNORMALI-1D45A" x="0" y="0"></use>
 <use xlink:href="#E1-STIXWEBMAIN-302" x="637" y="43"></use>
 <use transform="scale(0.707)" xlink:href="#E1-STIXWEBNORMALI-1D461" x="1004" y="-213"></use>
</g>
<g transform="translate(0,-2039)">
 <use xlink:href="#E1-STIXWEBNORMALI-1D464" x="0" y="0"></use>
<g transform="translate(775,-150)">
 <use transform="scale(0.707)" xlink:href="#E1-STIXWEBNORMALI-1D461" x="0" y="0"></use>
 <use transform="scale(0.707)" xlink:href="#E1-STIXWEBMAIN-2B" x="313" y="0"></use>
 <use transform="scale(0.707)" xlink:href="#E1-STIXWEBMAIN-31" x="999" y="0"></use>
</g>
</g>
</g>
<g transform="translate(1925,0)">
<g transform="translate(0,3051)">
 <use xlink:href="#E1-STIXWEBMAIN-3D" x="277" y="0"></use>
<g transform="translate(1241,0)">
 <use xlink:href="#E1-STIXWEBNORMALI-1D6FD" x="0" y="0"></use>
 <use transform="scale(0.707)" xlink:href="#E1-STIXWEBMAIN-31" x="697" y="-213"></use>
</g>
<g transform="translate(2355,0)">
 <use xlink:href="#E1-STIXWEBNORMALI-1D45A" x="0" y="0"></use>
<g transform="translate(710,-150)">
 <use transform="scale(0.707)" xlink:href="#E1-STIXWEBNORMALI-1D461" x="0" y="0"></use>
 <use transform="scale(0.707)" xlink:href="#E1-STIXWEBMAIN-2212" x="313" y="0"></use>
 <use transform="scale(0.707)" xlink:href="#E1-STIXWEBMAIN-31" x="999" y="0"></use>
</g>
</g>
 <use xlink:href="#E1-STIXWEBMAIN-2B" x="4448" y="0"></use>
 <use xlink:href="#E1-STIXWEBMAIN-28" x="5355" y="0"></use>
 <use xlink:href="#E1-STIXWEBMAIN-31" x="5689" y="0"></use>
 <use xlink:href="#E1-STIXWEBMAIN-2212" x="6412" y="0"></use>
<g transform="translate(7319,0)">
 <use xlink:href="#E1-STIXWEBNORMALI-1D6FD" x="0" y="0"></use>
 <use transform="scale(0.707)" xlink:href="#E1-STIXWEBMAIN-31" x="697" y="-213"></use>
</g>
 <use xlink:href="#E1-STIXWEBMAIN-29" x="8267" y="0"></use>
<g transform="translate(8767,0)">
 <use xlink:href="#E1-STIXWEBNORMALI-1D454" x="0" y="0"></use>
 <use transform="scale(0.707)" xlink:href="#E1-STIXWEBNORMALI-1D461" x="696" y="-213"></use>
</g>
</g>
<g transform="translate(0,1709)">
 <use xlink:href="#E1-STIXWEBMAIN-3D" x="277" y="0"></use>
<g transform="translate(1241,0)">
 <use xlink:href="#E1-STIXWEBNORMALI-1D6FD" x="0" y="0"></use>
 <use transform="scale(0.707)" xlink:href="#E1-STIXWEBMAIN-32" x="697" y="-213"></use>
</g>
<g transform="translate(2355,0)">
 <use xlink:href="#E1-STIXWEBNORMALI-1D463" x="0" y="0"></use>
<g transform="translate(506,-150)">
 <use transform="scale(0.707)" xlink:href="#E1-STIXWEBNORMALI-1D461" x="0" y="0"></use>
 <use transform="scale(0.707)" xlink:href="#E1-STIXWEBMAIN-2212" x="313" y="0"></use>
 <use transform="scale(0.707)" xlink:href="#E1-STIXWEBMAIN-31" x="999" y="0"></use>
</g>
</g>
 <use xlink:href="#E1-STIXWEBMAIN-2B" x="4244" y="0"></use>
 <use xlink:href="#E1-STIXWEBMAIN-28" x="5151" y="0"></use>
 <use xlink:href="#E1-STIXWEBMAIN-31" x="5485" y="0"></use>
 <use xlink:href="#E1-STIXWEBMAIN-2212" x="6208" y="0"></use>
<g transform="translate(7115,0)">
 <use xlink:href="#E1-STIXWEBNORMALI-1D6FD" x="0" y="0"></use>
 <use transform="scale(0.707)" xlink:href="#E1-STIXWEBMAIN-32" x="697" y="-213"></use>
</g>
 <use xlink:href="#E1-STIXWEBMAIN-29" x="8063" y="0"></use>
<g transform="translate(8563,0)">
 <use xlink:href="#E1-STIXWEBNORMALI-1D454" x="0" y="0"></use>
<g transform="translate(492,345)">
 <use transform="scale(0.707)" xlink:href="#E1-STIXWEBMAIN-32" x="235" y="0"></use>
</g>
 <use transform="scale(0.707)" xlink:href="#E1-STIXWEBNORMALI-1D461" x="696" y="-336"></use>
</g>
</g>
<g transform="translate(0,364)">
 <use xlink:href="#E1-STIXWEBMAIN-3D" x="277" y="0"></use>
<g transform="translate(1241,0)">
 <use xlink:href="#E1-STIXWEBNORMALI-1D45A" x="0" y="0"></use>
 <use transform="scale(0.707)" xlink:href="#E1-STIXWEBNORMALI-1D461" x="1004" y="-213"></use>
</g>
 <use xlink:href="#E1-STIXWEBMAIN-2F" x="2273" y="0"></use>
 <use xlink:href="#E1-STIXWEBMAIN-28" x="2551" y="0"></use>
 <use xlink:href="#E1-STIXWEBMAIN-31" x="2885" y="0"></use>
 <use xlink:href="#E1-STIXWEBMAIN-2212" x="3607" y="0"></use>
<g transform="translate(4515,0)">
 <use xlink:href="#E1-STIXWEBNORMALI-1D6FD" x="0" y="0"></use>
<g transform="translate(526,351)">
 <use transform="scale(0.707)" xlink:href="#E1-STIXWEBNORMALI-1D461" x="235" y="0"></use>
</g>
 <use transform="scale(0.707)" xlink:href="#E1-STIXWEBMAIN-31" x="697" y="-445"></use>
</g>
 <use xlink:href="#E1-STIXWEBMAIN-29" x="5530" y="0"></use>
 <use xlink:href="#E1-STIXWEBMAIN-2C" x="5863" y="0"></use>
<g transform="translate(7280,0)">
 <use xlink:href="#E1-STIXWEBNORMALI-1D463" x="0" y="0"></use>
 <use xlink:href="#E1-STIXWEBMAIN-302" x="525" y="60"></use>
 <use transform="scale(0.707)" xlink:href="#E1-STIXWEBNORMALI-1D461" x="744" y="-213"></use>
</g>
 <use xlink:href="#E1-STIXWEBMAIN-3D" x="8406" y="0"></use>
<g transform="translate(9369,0)">
 <use xlink:href="#E1-STIXWEBNORMALI-1D463" x="0" y="0"></use>
 <use transform="scale(0.707)" xlink:href="#E1-STIXWEBNORMALI-1D461" x="716" y="-213"></use>
</g>
 <use xlink:href="#E1-STIXWEBMAIN-2F" x="10197" y="0"></use>
 <use xlink:href="#E1-STIXWEBMAIN-28" x="10476" y="0"></use>
 <use xlink:href="#E1-STIXWEBMAIN-31" x="10809" y="0"></use>
 <use xlink:href="#E1-STIXWEBMAIN-2212" x="11532" y="0"></use>
<g transform="translate(12440,0)">
 <use xlink:href="#E1-STIXWEBNORMALI-1D6FD" x="0" y="0"></use>
<g transform="translate(526,351)">
 <use transform="scale(0.707)" xlink:href="#E1-STIXWEBNORMALI-1D461" x="235" y="0"></use>
</g>
 <use transform="scale(0.707)" xlink:href="#E1-STIXWEBMAIN-32" x="697" y="-445"></use>
</g>
 <use xlink:href="#E1-STIXWEBMAIN-29" x="13454" y="0"></use>
</g>
<g transform="translate(0,-2039)">
 <use xlink:href="#E1-STIXWEBMAIN-3D" x="277" y="0"></use>
<g transform="translate(1241,0)">
 <use xlink:href="#E1-STIXWEBNORMALI-1D464" x="0" y="0"></use>
 <use transform="scale(0.707)" xlink:href="#E1-STIXWEBNORMALI-1D461" x="1096" y="-213"></use>
</g>
 <use xlink:href="#E1-STIXWEBMAIN-2212" x="2727" y="0"></use>
 <use xlink:href="#E1-STIXWEBNORMALI-1D702" x="3801" y="0"></use>
<g transform="translate(4428,0)">
 <use xlink:href="#E1-STIXWEBSIZE4-28" x="0" y="-779"></use>
<g transform="translate(808,0)">
<g transform="translate(120,0)">
<rect stroke="none" width="3510" height="60" x="0" y="220"></rect>
<g transform="translate(1239,676)">
 <use xlink:href="#E1-STIXWEBNORMALI-1D45A" x="0" y="0"></use>
 <use xlink:href="#E1-STIXWEBMAIN-302" x="637" y="43"></use>
 <use transform="scale(0.707)" xlink:href="#E1-STIXWEBNORMALI-1D461" x="1004" y="-213"></use>
</g>
<g transform="translate(60,-992)">
 <use xlink:href="#E1-STIXWEBMAIN-221A" x="0" y="-62"></use>
<rect stroke="none" width="847" height="60" x="928" y="852"></rect>
<g transform="translate(928,0)">
 <use xlink:href="#E1-STIXWEBNORMALI-1D463" x="0" y="0"></use>
 <use xlink:href="#E1-STIXWEBMAIN-302" x="525" y="60"></use>
 <use transform="scale(0.707)" xlink:href="#E1-STIXWEBNORMALI-1D461" x="744" y="-213"></use>
</g>
 <use xlink:href="#E1-STIXWEBMAIN-2B" x="1998" y="0"></use>
 <use xlink:href="#E1-STIXWEBNORMALI-1D700" x="2906" y="0"></use>
</g>
</g>
</g>
 <use xlink:href="#E1-STIXWEBMAIN-2B" x="4781" y="0"></use>
 <use xlink:href="#E1-STIXWEBNORMALI-1D706" x="5689" y="0"></use>
<g transform="translate(6397,0)">
 <use xlink:href="#E1-STIXWEBNORMALI-1D464" x="0" y="0"></use>
 <use transform="scale(0.707)" xlink:href="#E1-STIXWEBNORMALI-1D461" x="1096" y="-213"></use>
</g>
 <use xlink:href="#E1-STIXWEBSIZE4-29" x="7494" y="-779"></use>
</g>
</g>
</g>
<g transform="translate(18713,0)">
<g transform="translate(0,3051)">
 <use xlink:href="#E1-STIXWEBMAIN-28"></use>
 <use xlink:href="#E1-STIXWEBMAIN-6D" x="333" y="0"></use>
 <use xlink:href="#E1-STIXWEBMAIN-65" x="1112" y="0"></use>
 <use xlink:href="#E1-STIXWEBMAIN-61" x="1556" y="0"></use>
 <use xlink:href="#E1-STIXWEBMAIN-6E" x="2001" y="0"></use>
 <use xlink:href="#E1-STIXWEBMAIN-6F" x="2751" y="0"></use>
 <use xlink:href="#E1-STIXWEBMAIN-66" x="3252" y="0"></use>
 <use xlink:href="#E1-STIXWEBMAIN-67" x="3835" y="0"></use>
 <use xlink:href="#E1-STIXWEBMAIN-72" x="4336" y="0"></use>
 <use xlink:href="#E1-STIXWEBMAIN-61" x="4669" y="0"></use>
 <use xlink:href="#E1-STIXWEBMAIN-64" x="5114" y="0"></use>
 <use xlink:href="#E1-STIXWEBMAIN-73" x="5614" y="0"></use>
 <use xlink:href="#E1-STIXWEBMAIN-29" x="6004" y="0"></use>
</g>
<g transform="translate(0,1709)">
 <use xlink:href="#E1-STIXWEBMAIN-28"></use>
 <use xlink:href="#E1-STIXWEBMAIN-76" x="333" y="0"></use>
 <use xlink:href="#E1-STIXWEBMAIN-61" x="834" y="0"></use>
 <use xlink:href="#E1-STIXWEBMAIN-72" x="1278" y="0"></use>
 <use xlink:href="#E1-STIXWEBMAIN-69" x="1612" y="0"></use>
 <use xlink:href="#E1-STIXWEBMAIN-61" x="1890" y="0"></use>
 <use xlink:href="#E1-STIXWEBMAIN-6E" x="2335" y="0"></use>
 <use xlink:href="#E1-STIXWEBMAIN-63" x="2835" y="0"></use>
 <use xlink:href="#E1-STIXWEBMAIN-65" x="3280" y="0"></use>
 <use xlink:href="#E1-STIXWEBMAIN-6F" x="3974" y="0"></use>
 <use xlink:href="#E1-STIXWEBMAIN-66" x="4475" y="0"></use>
 <use xlink:href="#E1-STIXWEBMAIN-67" x="5058" y="0"></use>
 <use xlink:href="#E1-STIXWEBMAIN-72" x="5559" y="0"></use>
 <use xlink:href="#E1-STIXWEBMAIN-61" x="5892" y="0"></use>
 <use xlink:href="#E1-STIXWEBMAIN-64" x="6337" y="0"></use>
 <use xlink:href="#E1-STIXWEBMAIN-73" x="6837" y="0"></use>
 <use xlink:href="#E1-STIXWEBMAIN-29" x="7227" y="0"></use>
</g>
<g transform="translate(0,364)">
 <use xlink:href="#E1-STIXWEBMAIN-28"></use>
 <use xlink:href="#E1-STIXWEBMAIN-62" x="333" y="0"></use>
 <use xlink:href="#E1-STIXWEBMAIN-69" x="834" y="0"></use>
 <use xlink:href="#E1-STIXWEBMAIN-61" x="1112" y="0"></use>
 <use xlink:href="#E1-STIXWEBMAIN-73" x="1557" y="0"></use>
 <use xlink:href="#E1-STIXWEBMAIN-63" x="2196" y="0"></use>
 <use xlink:href="#E1-STIXWEBMAIN-6F" x="2641" y="0"></use>
 <use xlink:href="#E1-STIXWEBMAIN-72" x="3141" y="0"></use>
 <use xlink:href="#E1-STIXWEBMAIN-72" x="3475" y="0"></use>
 <use xlink:href="#E1-STIXWEBMAIN-65" x="3808" y="0"></use>
 <use xlink:href="#E1-STIXWEBMAIN-63" x="4253" y="0"></use>
 <use xlink:href="#E1-STIXWEBMAIN-74" x="4697" y="0"></use>
 <use xlink:href="#E1-STIXWEBMAIN-69" x="4976" y="0"></use>
 <use xlink:href="#E1-STIXWEBMAIN-6F" x="5254" y="0"></use>
 <use xlink:href="#E1-STIXWEBMAIN-6E" x="5755" y="0"></use>
 <use xlink:href="#E1-STIXWEBMAIN-29" x="6255" y="0"></use>
</g>
</g>
</g>
</g>
</svg>