<svg xmlns:xlink="http://www.w3.org/1999/xlink" width="32.827ex" height="3.509ex" style="vertical-align: -1.171ex;" viewBox="0 -1006.6 14134 1510.9" role="img" focusable="false" xmlns="http://www.w3.org/2000/svg">
<defs>
<path stroke-width="1" id="E1-STIXWEBNORMALI-1D466" d="M270 307l28 -235c61 83 96 143 118 184c20 37 28 57 28 75c0 21 -52 31 -52 69c0 22 18 40 47 40c32 0 57 -23 57 -62c0 -78 -162 -318 -204 -371c-73 -92 -138 -190 -206 -190c-37 0 -56 31 -56 55c0 30 27 41 40 41c43 0 41 -31 57 -31c17 0 74 62 100 102l-38 314 c-5 45 -14 105 -70 105c-11 0 -27 -3 -36 -4l-2 16l150 25c23 -33 30 -59 39 -133Z"></path>
<path stroke-width="1" id="E1-STIXWEBMAIN-3D" d="M637 320h-589v66h589v-66zM637 120h-589v66h589v-66Z"></path>
<path stroke-width="1" id="E1-STIXWEBMAIN-4C" d="M598 174l-48 -174h-538v19c74 4 87 20 87 96v431c0 77 -9 91 -87 97v19h283v-19c-82 -5 -94 -18 -94 -95v-464c0 -38 17 -45 90 -45h70c81 0 135 18 169 61c13 17 26 39 42 74h26Z"></path>
<path stroke-width="1" id="E1-STIXWEBMAIN-61" d="M442 66v-28c-30 -38 -56 -48 -90 -48c-37 0 -59 20 -64 73h-1c-53 -60 -102 -73 -145 -73c-62 0 -105 38 -105 104c0 52 31 91 70 117c30 20 67 39 180 81v54c0 62 -33 90 -78 90c-40 0 -70 -22 -70 -49c0 -18 6 -21 6 -42c0 -19 -20 -41 -46 -41c-21 0 -43 19 -43 46 c0 26 16 58 51 80c28 18 70 30 115 30c56 0 94 -16 118 -45s28 -50 28 -111v-191c0 -46 13 -66 31 -66c16 0 26 5 43 19zM287 127v141c-62 -22 -103 -43 -128 -66c-24 -22 -34 -46 -34 -77c0 -53 30 -77 69 -77c20 0 41 5 58 16c29 20 35 34 35 63Z"></path>
<path stroke-width="1" id="E1-STIXWEBMAIN-79" d="M475 450v-15c-24 -3 -36 -14 -50 -51l-150 -409c-52 -142 -99 -193 -175 -193c-43 0 -70 25 -70 58c0 25 19 46 43 46c18 0 34 -3 52 -13c11 -6 20 -7 26 -7c14 0 34 20 50 44c20 29 40 92 40 108c0 15 -23 61 -42 101l-132 282c-10 22 -27 31 -53 35v14h205v-15 c-43 -2 -57 -9 -57 -27c0 -11 7 -27 13 -41l112 -250l97 276c3 7 4 14 4 18c0 16 -15 24 -46 24v15h133Z"></path>
<path stroke-width="1" id="E1-STIXWEBMAIN-65" d="M408 164l16 -7c-39 -109 -109 -167 -209 -167c-118 0 -190 89 -190 227c0 141 81 243 207 243c62 0 107 -24 139 -69c20 -28 30 -60 34 -114h-308c5 -76 10 -115 46 -163c28 -37 65 -55 111 -55c67 0 105 31 154 105zM99 309h204c-11 81 -32 115 -98 115 c-56 0 -95 -40 -106 -115Z"></path>
<path stroke-width="1" id="E1-STIXWEBMAIN-72" d="M160 458v-92c50 72 78 94 120 94c34 0 55 -20 55 -53c0 -28 -15 -45 -39 -45c-13 0 -24 5 -40 20c-11 10 -20 15 -26 15c-28 0 -70 -50 -70 -82v-225c0 -57 17 -72 85 -75v-15h-240v15c64 12 71 19 71 69v250c0 44 -9 60 -34 60c-12 0 -21 -1 -35 -4v16 c59 19 95 33 148 54Z"></path>
<path stroke-width="1" id="E1-STIXWEBMAIN-4E" d="M707 662v-19c-38 -4 -53 -7 -66 -18c-19 -17 -29 -39 -29 -118v-518h-18l-441 549v-388c0 -103 16 -120 93 -131v-19h-234v19c82 9 97 24 97 131v440c-33 41 -48 53 -97 53v19h170l386 -483v340c0 51 -4 81 -19 98c-17 19 -35 21 -79 26v19h237Z"></path>
<path stroke-width="1" id="E1-STIXWEBMAIN-6F" d="M470 231c0 -139 -90 -241 -225 -241c-121 0 -216 99 -216 238s90 232 225 232c122 0 216 -91 216 -229zM380 204c0 68 -18 137 -50 178c-24 30 -52 50 -95 50c-69 0 -116 -59 -116 -159c0 -79 16 -151 53 -205c22 -32 54 -50 90 -50c74 0 118 70 118 186Z"></path>
<path stroke-width="1" id="E1-STIXWEBMAIN-6D" d="M775 0h-218v15c56 6 65 17 65 75v206c0 79 -20 112 -77 112c-47 0 -77 -18 -107 -61v-252c0 -65 15 -79 72 -80v-15h-224v15c57 4 68 10 68 71v211c0 69 -22 111 -65 111c-37 0 -86 -19 -106 -43c-7 -8 -13 -15 -13 -17v-278c0 -43 15 -53 68 -55v-15h-222v15 c56 1 70 15 70 73v248c0 49 -9 66 -35 66c-11 0 -19 -1 -32 -4v17c55 15 88 26 139 45l8 -3v-74h2c66 68 108 77 153 77c54 0 88 -27 106 -84c54 58 105 84 163 84c81 0 116 -62 116 -180v-203c0 -45 13 -58 43 -60l26 -2v-15Z"></path>
<path stroke-width="1" id="E1-STIXWEBMAIN-28" d="M304 -161l-12 -16c-158 90 -244 259 -244 429c0 185 87 329 247 424l9 -16c-139 -119 -170 -212 -170 -405c0 -186 30 -299 170 -416Z"></path>
<path stroke-width="1" id="E1-STIXWEBSIZE1-28" d="M382 -134v-30c-142 134 -243 343 -243 615c0 267 101 481 243 615v-30c-90 -110 -162 -282 -162 -585c0 -306 72 -475 162 -585Z"></path>
<path stroke-width="1" id="E1-STIXWEBNORMALI-1D465" d="M305 288l45 69c26 40 61 84 111 84c32 0 49 -12 49 -33c0 -19 -13 -42 -39 -42c-22 0 -27 9 -44 9c-30 0 -41 -16 -55 -38l-55 -85c30 -62 53 -197 98 -197c16 0 40 14 61 57l14 -10c-12 -15 -57 -111 -115 -111c-41 0 -60 41 -73 77l-40 113l-63 -98 c-32 -49 -61 -92 -117 -92c-36 0 -52 25 -52 47c0 16 13 37 38 37c26 0 22 -20 47 -20c12 0 38 10 70 59l65 101l-33 92c-17 48 -43 89 -98 89c-13 0 -28 -2 -38 -6l-3 18l132 33c44 -24 63 -65 75 -98Z"></path>
<path stroke-width="1" id="E1-STIXWEBMAIN-2B" d="M636 220h-261v-261h-66v261h-261v66h261v261h66v-261h261v-66Z"></path>
<path stroke-width="1" id="E1-STIXWEBMAIN-53" d="M469 463h-25c-12 44 -23 70 -41 94c-35 45 -85 78 -145 78c-62 0 -101 -40 -101 -95c0 -68 74 -110 179 -171c106 -62 155 -120 155 -196c0 -112 -88 -187 -204 -187c-42 0 -81 7 -118 23c-19 8 -36 11 -47 11c-15 0 -28 -12 -28 -33h-22l-29 212h22 c46 -121 111 -177 206 -177c70 0 119 46 119 112c0 35 -10 58 -29 79c-35 38 -104 82 -168 116c-90 48 -122 110 -122 172c0 109 75 175 174 175c41 0 67 -6 105 -22c18 -8 34 -12 44 -12c17 0 28 12 32 34h21Z"></path>
<path stroke-width="1" id="E1-STIXWEBMAIN-75" d="M480 50v-14c-51 -14 -87 -25 -137 -45l-5 3v82h-2c-49 -67 -106 -86 -143 -86c-77 0 -122 51 -122 128v251c0 50 -14 64 -62 67v14h146v-323c0 -46 32 -79 71 -79c29 0 59 9 84 31c16 14 23 23 23 58v231c0 53 -14 61 -74 65v17h158v-343c0 -46 11 -57 57 -57h6Z"></path>
<path stroke-width="1" id="E1-STIXWEBMAIN-62" d="M153 681v-305c21 51 74 84 135 84c107 0 180 -96 180 -220c0 -148 -102 -250 -234 -250c-81 0 -165 32 -165 66v510c0 50 -8 58 -49 58c-7 0 -12 -1 -17 -2v17l30 9c47 14 73 20 115 35zM153 318v-244c0 -32 45 -52 97 -52c39 0 71 15 93 43c24 30 37 74 37 132 c0 60 -14 118 -39 153c-21 30 -53 47 -89 47c-53 0 -99 -37 -99 -79Z"></path>
<path stroke-width="1" id="E1-STIXWEBMAIN-29" d="M29 660l12 16c153 -92 244 -259 244 -429c0 -185 -88 -327 -247 -424l-9 16c142 117 170 211 170 405c0 187 -25 302 -170 416Z"></path>
<path stroke-width="1" id="E1-STIXWEBSIZE1-29" d="M86 1036v30c142 -134 243 -343 243 -615c0 -267 -101 -481 -243 -615v30c90 110 162 282 162 585c0 306 -72 475 -162 585Z"></path>
</defs>
<g stroke="currentColor" fill="currentColor" stroke-width="0" transform="matrix(1 0 0 -1 0 0)">
 <use xlink:href="#E1-STIXWEBNORMALI-1D466" x="0" y="0"></use>
 <use xlink:href="#E1-STIXWEBMAIN-3D" x="774" y="0"></use>
<g transform="translate(1737,0)">
 <use xlink:href="#E1-STIXWEBMAIN-4C"></use>
 <use xlink:href="#E1-STIXWEBMAIN-61" x="611" y="0"></use>
 <use xlink:href="#E1-STIXWEBMAIN-79" x="1056" y="0"></use>
 <use xlink:href="#E1-STIXWEBMAIN-65" x="1556" y="0"></use>
 <use xlink:href="#E1-STIXWEBMAIN-72" x="2001" y="0"></use>
 <use xlink:href="#E1-STIXWEBMAIN-4E" x="2334" y="0"></use>
 <use xlink:href="#E1-STIXWEBMAIN-6F" x="3057" y="0"></use>
 <use xlink:href="#E1-STIXWEBMAIN-72" x="3557" y="0"></use>
 <use xlink:href="#E1-STIXWEBMAIN-6D" x="3891" y="0"></use>
</g>
 <use xlink:href="#E1-STIXWEBSIZE1-28" x="6407" y="-201"></use>
 <use xlink:href="#E1-STIXWEBNORMALI-1D465" x="6875" y="0"></use>
 <use xlink:href="#E1-STIXWEBMAIN-2B" x="7648" y="0"></use>
<g transform="translate(8556,0)">
 <use xlink:href="#E1-STIXWEBMAIN-53"></use>
 <use xlink:href="#E1-STIXWEBMAIN-75" x="556" y="0"></use>
 <use xlink:href="#E1-STIXWEBMAIN-62" x="1057" y="0"></use>
 <use xlink:href="#E1-STIXWEBMAIN-4C" x="1557" y="0"></use>
 <use xlink:href="#E1-STIXWEBMAIN-61" x="2169" y="0"></use>
 <use xlink:href="#E1-STIXWEBMAIN-79" x="2613" y="0"></use>
 <use xlink:href="#E1-STIXWEBMAIN-65" x="3114" y="0"></use>
 <use xlink:href="#E1-STIXWEBMAIN-72" x="3558" y="0"></use>
</g>
 <use xlink:href="#E1-STIXWEBMAIN-28" x="12448" y="0"></use>
 <use xlink:href="#E1-STIXWEBNORMALI-1D465" x="12781" y="0"></use>
 <use xlink:href="#E1-STIXWEBMAIN-29" x="13332" y="0"></use>
 <use xlink:href="#E1-STIXWEBSIZE1-29" x="13665" y="-201"></use>
</g>
</svg>