<svg xmlns:xlink="http://www.w3.org/1999/xlink" width="26.402ex" height="6.009ex" style="vertical-align: -3.505ex;" viewBox="0 -1078.4 11367.7 2587.3" role="img" focusable="false" xmlns="http://www.w3.org/2000/svg">
<defs>
<path stroke-width="1" id="E1-STIXWEBNORMALI-1D466" d="M270 307l28 -235c61 83 96 143 118 184c20 37 28 57 28 75c0 21 -52 31 -52 69c0 22 18 40 47 40c32 0 57 -23 57 -62c0 -78 -162 -318 -204 -371c-73 -92 -138 -190 -206 -190c-37 0 -56 31 -56 55c0 30 27 41 40 41c43 0 41 -31 57 -31c17 0 74 62 100 102l-38 314 c-5 45 -14 105 -70 105c-11 0 -27 -3 -36 -4l-2 16l150 25c23 -33 30 -59 39 -133Z"></path>
<path stroke-width="1" id="E1-STIXWEBMAIN-3D" d="M637 320h-589v66h589v-66zM637 120h-589v66h589v-66Z"></path>
<path stroke-width="1" id="E1-STIXWEBSIZE1-2211" d="M1202 465l-74 -416h-1038l557 735l-521 715h976v-351h-36c0 19 -7 45 -11 65c-28 131 -95 183 -162 191c-28 4 -71 5 -106 5h-377l411 -564l-470 -613h568c139 0 208 69 244 233h39Z"></path>
<path stroke-width="1" id="E1-STIXWEBNORMALI-1D456" d="M257 566c0 -26 -22 -46 -48 -46c-29 0 -48 20 -48 46c0 25 19 50 48 50c26 0 48 -25 48 -50zM227 441l-92 -364c-1 -6 -1 -10 -1 -14c0 -7 6 -10 13 -10c22 0 28 12 64 51l13 -10c-35 -45 -85 -105 -134 -105c-28 0 -40 19 -40 46c0 12 0 31 79 338c1 2 2 9 2 12 c0 17 -8 22 -31 22c-9 0 -21 -2 -28 -4l-3 16Z"></path>
<path stroke-width="1" id="E1-STIXWEBMAIN-2208" d="M625 -27h-291c-160 0 -274 131 -274 279s112 279 271 279h294v-66h-290c-103 0 -189 -85 -206 -180h496v-66h-497c17 -95 103 -180 206 -180h291v-66Z"></path>
<path stroke-width="1" id="E1-STIXWEBMAIN-54" d="M593 492h-24c-22 110 -48 128 -154 128h-59v-509c0 -76 14 -88 96 -92v-19h-292v19c83 5 94 16 94 104v497h-60c-106 0 -133 -18 -153 -128h-24l7 170h562Z"></path>
<path stroke-width="1" id="E1-STIXWEBMAIN-6F" d="M470 231c0 -139 -90 -241 -225 -241c-121 0 -216 99 -216 238s90 232 225 232c122 0 216 -91 216 -229zM380 204c0 68 -18 137 -50 178c-24 30 -52 50 -95 50c-69 0 -116 -59 -116 -159c0 -79 16 -151 53 -205c22 -32 54 -50 90 -50c74 0 118 70 118 186Z"></path>
<path stroke-width="1" id="E1-STIXWEBMAIN-70" d="M159 458v-77c44 55 88 79 144 79c97 0 167 -89 167 -213c0 -145 -91 -257 -210 -257c-42 0 -65 10 -101 43v-157c0 -63 13 -74 88 -75v-18h-242v17c59 6 70 17 70 69v468c0 47 -7 57 -41 57c-9 0 -16 0 -25 -1v16c55 17 91 30 144 51zM159 334v-246c0 -30 57 -66 104 -66 c72 0 121 75 121 185c0 117 -49 193 -123 193c-46 0 -102 -36 -102 -66Z"></path>
<path stroke-width="1" id="E1-STIXWEBMAIN-4B" d="M723 0h-303v19l27 1c29 1 42 10 42 24c0 27 -58 88 -137 170l-100 103l-26 -21v-185c0 -77 16 -86 89 -92v-19h-282v19c79 4 91 19 91 106v424c0 74 -11 89 -90 94v19h282v-19c-83 -6 -90 -18 -90 -95v-200l178 164c48 45 78 74 78 99c0 20 -8 30 -41 31l-25 1v19h259 v-19c-68 -5 -87 -15 -156 -81l-186 -178l234 -256c83 -91 110 -109 156 -109v-19Z"></path>
<path stroke-width="1" id="E1-STIXWEBMAIN-28" d="M304 -161l-12 -16c-158 90 -244 259 -244 429c0 185 87 329 247 424l9 -16c-139 -119 -170 -212 -170 -405c0 -186 30 -299 170 -416Z"></path>
<path stroke-width="1" id="E1-STIXWEBNORMALI-1D43A" d="M734 329v-16c-85 0 -103 -26 -113 -62l-62 -216c-79 -47 -154 -47 -217 -47c-157 0 -292 75 -292 254c0 210 182 426 435 426c49 0 81 -9 103 -16c22 -6 41 -21 63 -21s40 21 43 37h16l-45 -223h-16c1 10 2 21 2 32c0 73 -47 154 -160 154c-229 0 -318 -248 -318 -427 c0 -82 34 -179 181 -179c41 0 70 8 97 25l57 201c2 8 3 18 3 25c0 22 -14 37 -75 37h-19l4 16h313Z"></path>
<path stroke-width="1" id="E1-STIXWEBNORMALI-1D465" d="M305 288l45 69c26 40 61 84 111 84c32 0 49 -12 49 -33c0 -19 -13 -42 -39 -42c-22 0 -27 9 -44 9c-30 0 -41 -16 -55 -38l-55 -85c30 -62 53 -197 98 -197c16 0 40 14 61 57l14 -10c-12 -15 -57 -111 -115 -111c-41 0 -60 41 -73 77l-40 113l-63 -98 c-32 -49 -61 -92 -117 -92c-36 0 -52 25 -52 47c0 16 13 37 38 37c26 0 22 -20 47 -20c12 0 38 10 70 59l65 101l-33 92c-17 48 -43 89 -98 89c-13 0 -28 -2 -38 -6l-3 18l132 33c44 -24 63 -65 75 -98Z"></path>
<path stroke-width="1" id="E1-STIXWEBMAIN-29" d="M29 660l12 16c153 -92 244 -259 244 -429c0 -185 -88 -327 -247 -424l-9 16c142 117 170 211 170 405c0 187 -25 302 -170 416Z"></path>
<path stroke-width="1" id="E1-STIXWEBMAIN-22C5" d="M203 253c0 -32 -27 -60 -59 -60c-33 0 -61 30 -61 60s28 60 61 60c32 0 59 -28 59 -60Z"></path>
<path stroke-width="1" id="E1-STIXWEBNORMALI-1D438" d="M734 653l-42 -158h-16c1 13 2 24 2 35c-3 74 -58 87 -109 87h-160l-60 -248h80c60 0 104 13 126 95h16l-58 -242h-17c1 13 6 43 6 60c0 47 -41 51 -72 51h-90l-66 -258c-1 -4 -2 -7 -2 -10c0 -16 16 -27 63 -27h67c158 0 214 47 257 160h16l-66 -198h-571l4 16h19 c73 0 96 28 104 62l120 488c4 18 5 29 5 36c0 24 -16 35 -75 35h-19l4 16h534Z"></path>
</defs>
<g stroke="currentColor" fill="currentColor" stroke-width="0" transform="matrix(1 0 0 -1 0 0)">
 <use xlink:href="#E1-STIXWEBNORMALI-1D466" x="0" y="0"></use>
 <use xlink:href="#E1-STIXWEBMAIN-3D" x="774" y="0"></use>
<g transform="translate(1737,0)">
 <use xlink:href="#E1-STIXWEBSIZE1-2211" x="1457" y="-524"></use>
<g transform="translate(0,-1122)">
 <use transform="scale(0.707)" xlink:href="#E1-STIXWEBNORMALI-1D456" x="0" y="0"></use>
 <use transform="scale(0.707)" xlink:href="#E1-STIXWEBMAIN-2208" x="311" y="0"></use>
<g transform="translate(704,0)">
 <use transform="scale(0.707)" xlink:href="#E1-STIXWEBMAIN-54"></use>
 <use transform="scale(0.707)" xlink:href="#E1-STIXWEBMAIN-6F" x="611" y="0"></use>
 <use transform="scale(0.707)" xlink:href="#E1-STIXWEBMAIN-70" x="1112" y="0"></use>
 <use transform="scale(0.707)" xlink:href="#E1-STIXWEBMAIN-4B" x="1612" y="0"></use>
</g>
 <use transform="scale(0.707)" xlink:href="#E1-STIXWEBMAIN-28" x="3332" y="0"></use>
 <use transform="scale(0.707)" xlink:href="#E1-STIXWEBNORMALI-1D43A" x="3665" y="0"></use>
 <use transform="scale(0.707)" xlink:href="#E1-STIXWEBMAIN-28" x="4400" y="0"></use>
 <use transform="scale(0.707)" xlink:href="#E1-STIXWEBNORMALI-1D465" x="4733" y="0"></use>
 <use transform="scale(0.707)" xlink:href="#E1-STIXWEBMAIN-29" x="5284" y="0"></use>
 <use transform="scale(0.707)" xlink:href="#E1-STIXWEBMAIN-29" x="5617" y="0"></use>
</g>
</g>
 <use xlink:href="#E1-STIXWEBNORMALI-1D43A" x="6112" y="0"></use>
 <use xlink:href="#E1-STIXWEBMAIN-28" x="6846" y="0"></use>
 <use xlink:href="#E1-STIXWEBNORMALI-1D465" x="7180" y="0"></use>
<g transform="translate(7730,0)">
 <use xlink:href="#E1-STIXWEBMAIN-29" x="0" y="0"></use>
 <use transform="scale(0.707)" xlink:href="#E1-STIXWEBNORMALI-1D456" x="471" y="-213"></use>
</g>
 <use xlink:href="#E1-STIXWEBMAIN-22C5" x="8606" y="0"></use>
<g transform="translate(9115,0)">
 <use xlink:href="#E1-STIXWEBNORMALI-1D438" x="0" y="0"></use>
 <use transform="scale(0.707)" xlink:href="#E1-STIXWEBNORMALI-1D456" x="1010" y="-213"></use>
</g>
 <use xlink:href="#E1-STIXWEBMAIN-28" x="10150" y="0"></use>
 <use xlink:href="#E1-STIXWEBNORMALI-1D465" x="10483" y="0"></use>
 <use xlink:href="#E1-STIXWEBMAIN-29" x="11034" y="0"></use>
</g>
</svg>