<svg xmlns:xlink="http://www.w3.org/1999/xlink" width="30.753ex" height="12.509ex" style="vertical-align: -5.671ex;" viewBox="0 -2944.1 13240.7 5385.9" role="img" focusable="false" xmlns="http://www.w3.org/2000/svg">
<defs>
<path stroke-width="1" id="E1-STIXWEBNORMALI-1D443" d="M201 653h271c170 0 232 -86 232 -160c0 -98 -81 -199 -285 -199c-28 0 -50 1 -74 5c-5 0 -8 1 -12 2l-56 -223c-2 -8 -3 -15 -3 -23c0 -24 18 -39 77 -39h32l-4 -16h-341l4 16h17c77 0 97 28 106 62l125 497c2 8 4 17 4 25c0 21 -17 37 -78 37h-19zM411 613l-68 -274 c16 -4 40 -8 60 -8c102 0 182 70 182 172c0 60 -30 113 -125 113c-17 0 -32 -1 -49 -3Z"></path>
<path stroke-width="1" id="E1-STIXWEBNORMALI-1D438" d="M734 653l-42 -158h-16c1 13 2 24 2 35c-3 74 -58 87 -109 87h-160l-60 -248h80c60 0 104 13 126 95h16l-58 -242h-17c1 13 6 43 6 60c0 47 -41 51 -72 51h-90l-66 -258c-1 -4 -2 -7 -2 -10c0 -16 16 -27 63 -27h67c158 0 214 47 257 160h16l-66 -198h-571l4 16h19 c73 0 96 28 104 62l120 488c4 18 5 29 5 36c0 24 -16 35 -75 35h-19l4 16h534Z"></path>
<path stroke-width="1" id="E1-STIXWEBMAIN-28" d="M304 -161l-12 -16c-158 90 -244 259 -244 429c0 185 87 329 247 424l9 -16c-139 -119 -170 -212 -170 -405c0 -186 30 -299 170 -416Z"></path>
<path stroke-width="1" id="E1-STIXWEBMAIN-70" d="M159 458v-77c44 55 88 79 144 79c97 0 167 -89 167 -213c0 -145 -91 -257 -210 -257c-42 0 -65 10 -101 43v-157c0 -63 13 -74 88 -75v-18h-242v17c59 6 70 17 70 69v468c0 47 -7 57 -41 57c-9 0 -16 0 -25 -1v16c55 17 91 30 144 51zM159 334v-246c0 -30 57 -66 104 -66 c72 0 121 75 121 185c0 117 -49 193 -123 193c-46 0 -102 -36 -102 -66Z"></path>
<path stroke-width="1" id="E1-STIXWEBMAIN-6F" d="M470 231c0 -139 -90 -241 -225 -241c-121 0 -216 99 -216 238s90 232 225 232c122 0 216 -91 216 -229zM380 204c0 68 -18 137 -50 178c-24 30 -52 50 -95 50c-69 0 -116 -59 -116 -159c0 -79 16 -151 53 -205c22 -32 54 -50 90 -50c74 0 118 70 118 186Z"></path>
<path stroke-width="1" id="E1-STIXWEBMAIN-73" d="M156 301l104 -63c64 -39 88 -66 88 -123c0 -67 -64 -125 -140 -125c-21 0 -50 1 -73 9c-24 8 -35 9 -46 9c-12 0 -18 -2 -24 -12h-13v157h16c21 -97 58 -141 127 -141c51 0 83 33 83 74c0 31 -20 57 -53 75l-54 30c-83 46 -120 94 -120 145c0 79 56 123 138 123 c24 0 46 -1 67 -11c11 -5 21 -8 28 -8c4 0 8 1 16 10h11l5 -136h-15c-23 90 -53 123 -113 123c-43 0 -75 -21 -75 -68c0 -22 15 -51 43 -68Z"></path>
<path stroke-width="1" id="E1-STIXWEBMAIN-2C" d="M83 -141l-10 19c55 37 83 74 83 107c0 7 -6 13 -14 13s-18 -4 -29 -4c-37 0 -58 17 -58 51s24 57 60 57c45 0 80 -35 80 -87c0 -60 -43 -123 -112 -156Z"></path>
<path stroke-width="1" id="E1-STIXWEBMAIN-32" d="M474 137l-54 -137h-391v12l178 189c94 99 130 175 130 260c0 91 -54 141 -139 141c-72 0 -107 -32 -147 -130l-21 5c21 117 85 199 208 199c113 0 185 -77 185 -176c0 -79 -39 -154 -128 -248l-165 -176h234c42 0 63 11 96 67Z"></path>
<path stroke-width="1" id="E1-STIXWEBNORMALI-1D456" d="M257 566c0 -26 -22 -46 -48 -46c-29 0 -48 20 -48 46c0 25 19 50 48 50c26 0 48 -25 48 -50zM227 441l-92 -364c-1 -6 -1 -10 -1 -14c0 -7 6 -10 13 -10c22 0 28 12 64 51l13 -10c-35 -45 -85 -105 -134 -105c-28 0 -40 19 -40 46c0 12 0 31 79 338c1 2 2 9 2 12 c0 17 -8 22 -31 22c-9 0 -21 -2 -28 -4l-3 16Z"></path>
<path stroke-width="1" id="E1-STIXWEBMAIN-29" d="M29 660l12 16c153 -92 244 -259 244 -429c0 -185 -88 -327 -247 -424l-9 16c142 117 170 211 170 405c0 187 -25 302 -170 416Z"></path>
<path stroke-width="1" id="E1-STIXWEBMAIN-3D" d="M637 320h-589v66h589v-66zM637 120h-589v66h589v-66Z"></path>
<path stroke-width="1" id="E1-STIXWEBMAIN-69" d="M180 632c0 -29 -22 -51 -52 -51c-28 0 -50 22 -50 51c0 28 23 51 51 51c29 0 51 -23 51 -51zM253 0h-237v15c69 4 79 13 79 89v227c0 47 -8 63 -33 63c-9 0 -24 0 -42 -5v16l155 55l4 -4v-351c0 -74 8 -85 74 -90v-15Z"></path>
<path stroke-width="1" id="E1-STIXWEBMAIN-6E" d="M485 0h-208l1 15c50 4 62 24 62 90v199c0 71 -24 101 -73 101c-33 0 -57 -12 -103 -57v-276c0 -39 14 -53 65 -57v-15h-211v15c51 4 62 20 62 79v243c0 49 -7 65 -35 65c-11 0 -22 -1 -29 -4v17c55 16 88 27 137 45l8 -3v-78h1c52 59 98 81 144 81c76 0 118 -55 118 -154 v-221c0 -54 12 -65 61 -70v-15Z"></path>
<path stroke-width="1" id="E1-STIXWEBMAIN-31" d="M394 0h-276v15c74 4 95 25 95 80v449c0 34 -9 49 -30 49c-10 0 -27 -5 -45 -12l-27 -10v14l179 91l9 -3v-597c0 -43 20 -61 95 -61v-15Z"></path>
<path stroke-width="1" id="E1-STIXWEBMAIN-30" d="M476 330c0 -172 -63 -344 -226 -344c-171 0 -226 186 -226 350c0 177 69 340 230 340c131 0 222 -141 222 -346zM380 325c0 208 -44 325 -132 325c-83 0 -128 -118 -128 -321s44 -317 130 -317c85 0 130 115 130 313Z"></path>
<path stroke-width="1" id="E1-STIXWEBMAIN-2F" d="M287 676l-228 -690h-68l229 690h67Z"></path>
<path stroke-width="1" id="E1-STIXWEBNORMALI-1D451" d="M527 668l-149 -598c-1 -3 -2 -9 -2 -12c0 -6 5 -9 15 -9c20 0 48 35 62 56l11 -12c-30 -45 -83 -105 -130 -105c-32 0 -40 23 -40 41c0 20 2 34 10 64h-5c-74 -93 -134 -105 -171 -105c-73 0 -88 74 -88 127c0 103 103 326 257 326c57 0 80 -26 81 -50h2l53 209 c1 4 2 8 2 12c0 13 -7 20 -33 20c-9 0 -20 -2 -27 -3l-4 15zM363 340c0 47 -15 71 -56 71c-99 0 -180 -200 -180 -296c0 -49 28 -66 56 -66c70 0 136 94 164 186c11 35 16 74 16 105Z"></path>
<path stroke-width="1" id="E1-STIXWEBSIZE3-28" d="M667 -346v-48c-284 267 -485 689 -485 1230c0 538 201 1002 485 1230v-44c-178 -184 -375 -580 -375 -1186c0 -613 197 -962 375 -1182Z"></path>
<path stroke-width="1" id="E1-STIXWEBSIZE3-29" d="M83 2018v48c284 -267 485 -685 485 -1230c0 -534 -201 -1002 -485 -1230v44c178 184 375 580 375 1186c0 614 -197 965 -375 1182Z"></path>
<path stroke-width="1" id="E1-STIXWEBMAIN-2B" d="M636 220h-261v-261h-66v261h-261v66h261v261h66v-261h261v-66Z"></path>
<path stroke-width="1" id="E1-STIXWEBMAIN-63" d="M398 156l14 -9c-32 -62 -52 -91 -82 -115c-34 -28 -72 -42 -115 -42c-111 0 -190 93 -190 222c0 83 30 152 84 197c40 33 88 51 135 51c84 0 154 -47 154 -103c0 -23 -21 -42 -47 -42c-22 0 -40 17 -48 46l-6 22c-10 37 -23 48 -59 48c-81 0 -136 -70 -136 -174 c0 -115 63 -195 155 -195c57 0 93 24 141 94Z"></path>
</defs>
<g stroke="currentColor" fill="currentColor" stroke-width="0" transform="matrix(1 0 0 -1 0 0)">
<g transform="translate(167,0)">
<g transform="translate(-11,0)">
<g transform="translate(838,1381)">
 <use xlink:href="#E1-STIXWEBNORMALI-1D443" x="0" y="0"></use>
<g transform="translate(704,0)">
 <use xlink:href="#E1-STIXWEBNORMALI-1D438" x="0" y="0"></use>
<g transform="translate(714,-150)">
 <use transform="scale(0.707)" xlink:href="#E1-STIXWEBMAIN-28" x="0" y="0"></use>
<g transform="translate(235,0)">
 <use transform="scale(0.707)" xlink:href="#E1-STIXWEBMAIN-70"></use>
 <use transform="scale(0.707)" xlink:href="#E1-STIXWEBMAIN-6F" x="500" y="0"></use>
 <use transform="scale(0.707)" xlink:href="#E1-STIXWEBMAIN-73" x="1001" y="0"></use>
</g>
 <use transform="scale(0.707)" xlink:href="#E1-STIXWEBMAIN-2C" x="1724" y="0"></use>
 <use transform="scale(0.707)" xlink:href="#E1-STIXWEBMAIN-32" x="2210" y="0"></use>
 <use transform="scale(0.707)" xlink:href="#E1-STIXWEBNORMALI-1D456" x="2710" y="0"></use>
 <use transform="scale(0.707)" xlink:href="#E1-STIXWEBMAIN-29" x="3022" y="0"></use>
</g>
</g>
</g>
<g transform="translate(0,-1381)">
 <use xlink:href="#E1-STIXWEBNORMALI-1D443" x="0" y="0"></use>
<g transform="translate(704,0)">
 <use xlink:href="#E1-STIXWEBNORMALI-1D438" x="0" y="0"></use>
<g transform="translate(714,-150)">
 <use transform="scale(0.707)" xlink:href="#E1-STIXWEBMAIN-28" x="0" y="0"></use>
<g transform="translate(235,0)">
 <use transform="scale(0.707)" xlink:href="#E1-STIXWEBMAIN-70"></use>
 <use transform="scale(0.707)" xlink:href="#E1-STIXWEBMAIN-6F" x="500" y="0"></use>
 <use transform="scale(0.707)" xlink:href="#E1-STIXWEBMAIN-73" x="1001" y="0"></use>
</g>
 <use transform="scale(0.707)" xlink:href="#E1-STIXWEBMAIN-2C" x="1724" y="0"></use>
 <use transform="scale(0.707)" xlink:href="#E1-STIXWEBMAIN-32" x="2210" y="0"></use>
 <use transform="scale(0.707)" xlink:href="#E1-STIXWEBNORMALI-1D456" x="2710" y="0"></use>
 <use transform="scale(0.707)" xlink:href="#E1-STIXWEBMAIN-2B" x="3022" y="0"></use>
 <use transform="scale(0.707)" xlink:href="#E1-STIXWEBMAIN-31" x="3707" y="0"></use>
 <use transform="scale(0.707)" xlink:href="#E1-STIXWEBMAIN-29" x="4208" y="0"></use>
</g>
</g>
</g>
</g>
<g transform="translate(4720,0)">
<g transform="translate(0,1381)">
 <use xlink:href="#E1-STIXWEBMAIN-3D" x="277" y="0"></use>
<g transform="translate(1241,0)">
 <use xlink:href="#E1-STIXWEBMAIN-73"></use>
 <use xlink:href="#E1-STIXWEBMAIN-69" x="389" y="0"></use>
 <use xlink:href="#E1-STIXWEBMAIN-6E" x="668" y="0"></use>
</g>
<g transform="translate(2409,0)">
 <use xlink:href="#E1-STIXWEBSIZE3-28" x="0" y="-586"></use>
<g transform="translate(750,0)">
<g transform="translate(120,0)">
<rect stroke="none" width="3870" height="60" x="0" y="220"></rect>
<g transform="translate(1239,737)">
 <use xlink:href="#E1-STIXWEBMAIN-70"></use>
 <use xlink:href="#E1-STIXWEBMAIN-6F" x="500" y="0"></use>
 <use xlink:href="#E1-STIXWEBMAIN-73" x="1001" y="0"></use>
</g>
<g transform="translate(60,-903)">
 <use xlink:href="#E1-STIXWEBMAIN-31"></use>
 <use xlink:href="#E1-STIXWEBMAIN-30" x="500" y="0"></use>
 <use xlink:href="#E1-STIXWEBMAIN-30" x="1001" y="0"></use>
 <use xlink:href="#E1-STIXWEBMAIN-30" x="1501" y="0"></use>
 <use xlink:href="#E1-STIXWEBMAIN-30" x="2002" y="0"></use>
<g transform="translate(2502,403)">
 <use transform="scale(0.707)" xlink:href="#E1-STIXWEBMAIN-32" x="0" y="0"></use>
 <use transform="scale(0.707)" xlink:href="#E1-STIXWEBNORMALI-1D456" x="500" y="0"></use>
 <use transform="scale(0.707)" xlink:href="#E1-STIXWEBMAIN-2F" x="812" y="0"></use>
 <use transform="scale(0.707)" xlink:href="#E1-STIXWEBNORMALI-1D451" x="1090" y="0"></use>
</g>
</g>
</g>
</g>
 <use xlink:href="#E1-STIXWEBSIZE3-29" x="4860" y="-586"></use>
</g>
</g>
<g transform="translate(0,-1381)">
 <use xlink:href="#E1-STIXWEBMAIN-3D" x="277" y="0"></use>
<g transform="translate(1241,0)">
 <use xlink:href="#E1-STIXWEBMAIN-63"></use>
 <use xlink:href="#E1-STIXWEBMAIN-6F" x="444" y="0"></use>
 <use xlink:href="#E1-STIXWEBMAIN-73" x="945" y="0"></use>
</g>
<g transform="translate(2575,0)">
 <use xlink:href="#E1-STIXWEBSIZE3-28" x="0" y="-586"></use>
<g transform="translate(750,0)">
<g transform="translate(120,0)">
<rect stroke="none" width="3870" height="60" x="0" y="220"></rect>
<g transform="translate(1239,737)">
 <use xlink:href="#E1-STIXWEBMAIN-70"></use>
 <use xlink:href="#E1-STIXWEBMAIN-6F" x="500" y="0"></use>
 <use xlink:href="#E1-STIXWEBMAIN-73" x="1001" y="0"></use>
</g>
<g transform="translate(60,-903)">
 <use xlink:href="#E1-STIXWEBMAIN-31"></use>
 <use xlink:href="#E1-STIXWEBMAIN-30" x="500" y="0"></use>
 <use xlink:href="#E1-STIXWEBMAIN-30" x="1001" y="0"></use>
 <use xlink:href="#E1-STIXWEBMAIN-30" x="1501" y="0"></use>
 <use xlink:href="#E1-STIXWEBMAIN-30" x="2002" y="0"></use>
<g transform="translate(2502,403)">
 <use transform="scale(0.707)" xlink:href="#E1-STIXWEBMAIN-32" x="0" y="0"></use>
 <use transform="scale(0.707)" xlink:href="#E1-STIXWEBNORMALI-1D456" x="500" y="0"></use>
 <use transform="scale(0.707)" xlink:href="#E1-STIXWEBMAIN-2F" x="812" y="0"></use>
 <use transform="scale(0.707)" xlink:href="#E1-STIXWEBNORMALI-1D451" x="1090" y="0"></use>
</g>
</g>
</g>
</g>
 <use xlink:href="#E1-STIXWEBSIZE3-29" x="4860" y="-586"></use>
</g>
</g>
</g>
</g>
</g>
</svg>