<svg xmlns:xlink="http://www.w3.org/1999/xlink" width="13.77ex" height="6.843ex" style="vertical-align: -3.505ex; margin-left: -0.069ex;" viewBox="-29.5 -1437.2 5928.5 2946.1" role="img" focusable="false" xmlns="http://www.w3.org/2000/svg">
<defs>
<path stroke-width="1" id="E1-STIXWEBNORMALI-1D45D" d="M253 370l14 13c39 37 78 58 113 58c61 0 94 -54 94 -155c0 -129 -110 -298 -254 -298c-24 0 -42 4 -61 19l-24 -100c-3 -13 -5 -24 -5 -35c0 -22 11 -43 61 -43h16l-3 -12h-234l3 12c62 3 69 33 81 79l117 464c0 19 -1 33 -31 33c-8 0 -20 -2 -28 -4l-2 16l158 24 l-18 -69zM214 238l-46 -200c14 -16 34 -21 46 -21c101 0 176 173 176 285c0 63 -28 83 -51 83c-53 0 -105 -61 -125 -147Z"></path>
<path stroke-width="1" id="E1-STIXWEBNORMALI-1D456" d="M257 566c0 -26 -22 -46 -48 -46c-29 0 -48 20 -48 46c0 25 19 50 48 50c26 0 48 -25 48 -50zM227 441l-92 -364c-1 -6 -1 -10 -1 -14c0 -7 6 -10 13 -10c22 0 28 12 64 51l13 -10c-35 -45 -85 -105 -134 -105c-28 0 -40 19 -40 46c0 12 0 31 79 338c1 2 2 9 2 12 c0 17 -8 22 -31 22c-9 0 -21 -2 -28 -4l-3 16Z"></path>
<path stroke-width="1" id="E1-STIXWEBMAIN-3D" d="M637 320h-589v66h589v-66zM637 120h-589v66h589v-66Z"></path>
<path stroke-width="1" id="E1-STIXWEBNORMALI-1D452" d="M363 112l14 -13c-70 -86 -138 -110 -200 -110c-98 0 -137 84 -137 156c0 23 1 37 6 60c25 111 135 236 262 236c42 0 102 -14 102 -76c0 -127 -167 -176 -286 -182v-28c0 -64 52 -107 113 -107c42 0 90 18 126 64zM124 211h9c104 0 198 69 198 157c0 25 -19 43 -44 43 c-74 0 -134 -115 -163 -200Z"></path>
<path stroke-width="1" id="E1-STIXWEBNORMALI-1D467" d="M467 450v-16l-322 -360l3 -1c19 14 44 21 67 21c92 0 95 -86 140 -86c15 0 27 8 27 24c0 13 -12 16 -12 38c0 19 19 38 38 38c25 0 40 -18 40 -42c0 -54 -60 -80 -106 -80c-22 0 -47 9 -68 14c-32 9 -66 14 -99 14c-40 0 -85 -8 -122 -24l-11 10l328 370h-131 c-57 0 -81 -6 -104 -61l-18 4l36 137h314Z"></path>
<path stroke-width="1" id="E1-STIXWEBOPERATORS-2211" d="M856 40l-53 -299h-745l392 510l-367 512h747v-251h-30c-21 135 -59 185 -192 185h-320l290 -391l-336 -434h414c112 0 148 68 170 168h30Z"></path>
<path stroke-width="1" id="E1-STIXWEBVARIANTS-7C" d="M193 -189h-66v879h66v-879Z"></path>
<path stroke-width="1" id="E1-STIXWEBNORMALI-1D449" d="M760 653l-4 -16c-65 -4 -106 -43 -132 -77l-441 -576h-24v571c0 58 -38 82 -99 82l4 16h294l-4 -16h-19c-65 0 -70 -37 -70 -70v-391l4 -1l280 366c19 24 38 53 38 74c0 15 -14 22 -52 22h-20l4 16h241Z"></path>
<path stroke-width="1" id="E1-STIXWEBNORMALI-1D457" d="M372 566c0 -26 -22 -46 -48 -46c-29 0 -48 20 -48 46c0 25 19 50 48 50c26 0 48 -25 48 -50zM351 441l-108 -425c-22 -88 -78 -203 -186 -203c-53 0 -73 33 -73 61c0 22 12 52 47 52c19 0 35 -15 35 -38c0 -15 -16 -18 -16 -34c0 -4 5 -10 10 -10c46 0 79 76 103 172 l92 363c0 12 -10 22 -32 22c-8 0 -20 -2 -27 -5l-3 17Z"></path>
<path stroke-width="1" id="E1-STIXWEBMAIN-31" d="M394 0h-276v15c74 4 95 25 95 80v449c0 34 -9 49 -30 49c-10 0 -27 -5 -45 -12l-27 -10v14l179 91l9 -3v-597c0 -43 20 -61 95 -61v-15Z"></path>
</defs>
<g stroke="currentColor" fill="currentColor" stroke-width="0" transform="matrix(1 0 0 -1 0 0)">
 <use xlink:href="#E1-STIXWEBNORMALI-1D45D" x="0" y="0"></use>
 <use transform="scale(0.707)" xlink:href="#E1-STIXWEBNORMALI-1D456" x="692" y="-213"></use>
 <use xlink:href="#E1-STIXWEBMAIN-3D" x="1087" y="0"></use>
<g transform="translate(1773,0)">
<g transform="translate(397,0)">
<rect stroke="none" width="3608" height="60" x="0" y="220"></rect>
<g transform="translate(1229,676)">
 <use xlink:href="#E1-STIXWEBNORMALI-1D452" x="0" y="0"></use>
<g transform="translate(445,362)">
 <use transform="scale(0.707)" xlink:href="#E1-STIXWEBNORMALI-1D467" x="0" y="0"></use>
 <use transform="scale(0.574)" xlink:href="#E1-STIXWEBNORMALI-1D456" x="615" y="-193"></use>
</g>
</g>
<g transform="translate(60,-997)">
 <use xlink:href="#E1-STIXWEBOPERATORS-2211" x="0" y="-2"></use>
<g transform="translate(914,488)">
 <use transform="scale(0.707)" xlink:href="#E1-STIXWEBVARIANTS-7C" x="0" y="0"></use>
 <use transform="scale(0.707)" xlink:href="#E1-STIXWEBNORMALI-1D449" x="320" y="0"></use>
 <use transform="scale(0.707)" xlink:href="#E1-STIXWEBVARIANTS-7C" x="1081" y="0"></use>
</g>
<g transform="translate(914,-305)">
 <use transform="scale(0.707)" xlink:href="#E1-STIXWEBNORMALI-1D457" x="0" y="0"></use>
 <use transform="scale(0.707)" xlink:href="#E1-STIXWEBMAIN-3D" x="389" y="0"></use>
 <use transform="scale(0.707)" xlink:href="#E1-STIXWEBMAIN-31" x="1075" y="0"></use>
</g>
<g transform="translate(2295,0)">
 <use xlink:href="#E1-STIXWEBNORMALI-1D452" x="0" y="0"></use>
<g transform="translate(445,326)">
 <use transform="scale(0.707)" xlink:href="#E1-STIXWEBNORMALI-1D467" x="0" y="0"></use>
 <use transform="scale(0.574)" xlink:href="#E1-STIXWEBNORMALI-1D457" x="615" y="-193"></use>
</g>
</g>
</g>
</g>
</g>
</g>
</svg>