<svg xmlns:xlink="http://www.w3.org/1999/xlink" width="54.932ex" height="6.343ex" style="vertical-align: -3.338ex;" viewBox="0 -1293.7 23651.3 2730.8" role="img" focusable="false" xmlns="http://www.w3.org/2000/svg">
<defs>
<path stroke-width="1" id="E2-STIXWEBNORMALI-1D449" d="M760 653l-4 -16c-65 -4 -106 -43 -132 -77l-441 -576h-24v571c0 58 -38 82 -99 82l4 16h294l-4 -16h-19c-65 0 -70 -37 -70 -70v-391l4 -1l280 366c19 24 38 53 38 74c0 15 -14 22 -52 22h-20l4 16h241Z"></path>
<path stroke-width="1" id="E2-STIXWEBNORMALI-1D45D" d="M253 370l14 13c39 37 78 58 113 58c61 0 94 -54 94 -155c0 -129 -110 -298 -254 -298c-24 0 -42 4 -61 19l-24 -100c-3 -13 -5 -24 -5 -35c0 -22 11 -43 61 -43h16l-3 -12h-234l3 12c62 3 69 33 81 79l117 464c0 19 -1 33 -31 33c-8 0 -20 -2 -28 -4l-2 16l158 24 l-18 -69zM214 238l-46 -200c14 -16 34 -21 46 -21c101 0 176 173 176 285c0 63 -28 83 -51 83c-53 0 -105 -61 -125 -147Z"></path>
<path stroke-width="1" id="E2-STIXWEBMAIN-3D" d="M637 320h-589v66h589v-66zM637 120h-589v66h589v-66Z"></path>
<path stroke-width="1" id="E2-STIXWEBMAIN-6D" d="M775 0h-218v15c56 6 65 17 65 75v206c0 79 -20 112 -77 112c-47 0 -77 -18 -107 -61v-252c0 -65 15 -79 72 -80v-15h-224v15c57 4 68 10 68 71v211c0 69 -22 111 -65 111c-37 0 -86 -19 -106 -43c-7 -8 -13 -15 -13 -17v-278c0 -43 15 -53 68 -55v-15h-222v15 c56 1 70 15 70 73v248c0 49 -9 66 -35 66c-11 0 -19 -1 -32 -4v17c55 15 88 26 139 45l8 -3v-74h2c66 68 108 77 153 77c54 0 88 -27 106 -84c54 58 105 84 163 84c81 0 116 -62 116 -180v-203c0 -45 13 -58 43 -60l26 -2v-15Z"></path>
<path stroke-width="1" id="E2-STIXWEBMAIN-69" d="M180 632c0 -29 -22 -51 -52 -51c-28 0 -50 22 -50 51c0 28 23 51 51 51c29 0 51 -23 51 -51zM253 0h-237v15c69 4 79 13 79 89v227c0 47 -8 63 -33 63c-9 0 -24 0 -42 -5v16l155 55l4 -4v-351c0 -74 8 -85 74 -90v-15Z"></path>
<path stroke-width="1" id="E2-STIXWEBMAIN-6E" d="M485 0h-208l1 15c50 4 62 24 62 90v199c0 71 -24 101 -73 101c-33 0 -57 -12 -103 -57v-276c0 -39 14 -53 65 -57v-15h-211v15c51 4 62 20 62 79v243c0 49 -7 65 -35 65c-11 0 -22 -1 -29 -4v17c55 16 88 27 137 45l8 -3v-78h1c52 59 98 81 144 81c76 0 118 -55 118 -154 v-221c0 -54 12 -65 61 -70v-15Z"></path>
<path stroke-width="1" id="E2-STIXWEBMAIN-7B" d="M350 -170v-11c-67 1 -93 7 -121 25s-44 59 -44 115v177c0 69 -18 93 -85 114c67 20 85 43 85 113v178c0 57 15 96 44 114s55 24 121 25v-11c-69 -18 -91 -48 -91 -123v-168c0 -83 -19 -109 -94 -129c75 -19 94 -45 94 -128v-168c0 -75 22 -105 91 -123Z"></path>
<path stroke-width="1" id="E2-STIXWEBSIZE2-7B" d="M531 -239v-40c-152 23 -254 147 -254 415v248c0 90 -47 224 -153 243v32c106 20 153 154 153 244v248c0 268 106 402 254 415v-40c-83 -4 -164 -120 -164 -219c0 -30 5 -193 5 -204v-130c0 -148 -56 -267 -188 -330c132 -64 188 -181 188 -329v-131 c0 -11 -5 -173 -5 -203c0 -100 46 -181 164 -219Z"></path>
<path stroke-width="1" id="E2-STIXWEBVARIANTS-2032" d="M78 28l-34 12c26 123 89 398 107 456c16 51 46 69 76 69c36 0 68 -22 68 -71c0 -11 -5 -35 -10 -47c-21 -57 -146 -306 -207 -419Z"></path>
<path stroke-width="1" id="E2-STIXWEBMAIN-2286" d="M621 51h-290c-159 0 -267 131 -267 279s110 277 270 277h287v-66h-287c-114 0 -204 -104 -204 -211s91 -213 205 -213h286v-66zM621 -103h-548v66h548v-66Z"></path>
<path stroke-width="1" id="E2-STIXWEBMAIN-3A" d="M192 403c0 -30 -25 -55 -55 -55s-56 25 -56 55c0 32 24 56 56 56c30 0 55 -26 55 -56zM192 44c0 -30 -25 -55 -55 -55s-56 25 -56 55c0 32 24 56 56 56c30 0 55 -26 55 -56Z"></path>
<path stroke-width="1" id="E2-STIXWEBSIZE1-2211" d="M1202 465l-74 -416h-1038l557 735l-521 715h976v-351h-36c0 19 -7 45 -11 65c-28 131 -95 183 -162 191c-28 4 -71 5 -106 5h-377l411 -564l-470 -613h568c139 0 208 69 244 233h39Z"></path>
<path stroke-width="1" id="E2-STIXWEBNORMALI-1D456" d="M257 566c0 -26 -22 -46 -48 -46c-29 0 -48 20 -48 46c0 25 19 50 48 50c26 0 48 -25 48 -50zM227 441l-92 -364c-1 -6 -1 -10 -1 -14c0 -7 6 -10 13 -10c22 0 28 12 64 51l13 -10c-35 -45 -85 -105 -134 -105c-28 0 -40 19 -40 46c0 12 0 31 79 338c1 2 2 9 2 12 c0 17 -8 22 -31 22c-9 0 -21 -2 -28 -4l-3 16Z"></path>
<path stroke-width="1" id="E2-STIXWEBMAIN-2208" d="M625 -27h-291c-160 0 -274 131 -274 279s112 279 271 279h294v-66h-290c-103 0 -189 -85 -206 -180h496v-66h-497c17 -95 103 -180 206 -180h291v-66Z"></path>
<path stroke-width="1" id="E2-STIXWEBMAIN-2265" d="M629 324l-565 -273v63l432 215l-432 215v65l565 -275v-10zM629 -103h-565v66h565v-66Z"></path>
<path stroke-width="1" id="E2-STIXWEBMAIN-7D" d="M295 540v-177c0 -70 18 -93 85 -113c-67 -21 -85 -44 -85 -114v-178c0 -57 -15 -96 -44 -114s-55 -24 -121 -25v11c69 18 91 48 91 123v168c0 83 19 109 94 129c-75 19 -94 44 -94 128v168c0 75 -22 105 -91 123v11c67 -1 93 -7 121 -25s44 -59 44 -115Z"></path>
<path stroke-width="1" id="E2-STIXWEBSIZE2-7D" d="M593 660v-32c-106 -20 -153 -154 -153 -244v-248c0 -268 -106 -402 -254 -415v40c83 4 164 120 164 219c0 30 -5 193 -5 204v130c0 148 56 266 188 329c-132 64 -188 182 -188 330v131c0 11 5 173 5 203c0 100 -46 181 -164 219v40c152 -23 254 -147 254 -415v-248 c0 -90 47 -224 153 -243Z"></path>
<path stroke-width="1" id="E2-STIXWEBMAIN-27F9" d="M1519 258v-10c-121 -92 -249 -177 -366 -293l-21 20c24 28 50 56 75 82c14 15 22 21 22 41c0 8 -8 22 -26 22h-1148v66h1292c33 19 59 43 59 67s-26 45 -58 67h-1293v66h1148c18 0 26 14 26 22c0 16 -6 25 -23 42c-11 11 -50 53 -74 81l21 20c117 -116 243 -201 366 -293 Z"></path>
<path stroke-width="1" id="E2-STIXWEBMAIN-303" d="M-94 638h29c-21 -76 -50 -106 -105 -106c-25 0 -40 4 -81 24c-38 18 -46 22 -64 22c-23 0 -40 -15 -51 -46h-29c15 65 51 101 101 101c22 0 46 -6 70 -18c43 -22 57 -28 77 -28c23 0 36 14 53 51Z"></path>
<path stroke-width="1" id="E2-STIXWEBOPERATORS-2211" d="M856 40l-53 -299h-745l392 510l-367 512h747v-251h-30c-21 135 -59 185 -192 185h-320l290 -391l-336 -434h414c112 0 148 68 170 168h30Z"></path>
<path stroke-width="1" id="E2-STIXWEBNORMALI-1D457" d="M372 566c0 -26 -22 -46 -48 -46c-29 0 -48 20 -48 46c0 25 19 50 48 50c26 0 48 -25 48 -50zM351 441l-108 -425c-22 -88 -78 -203 -186 -203c-53 0 -73 33 -73 61c0 22 12 52 47 52c19 0 35 -15 35 -38c0 -15 -16 -18 -16 -34c0 -4 5 -10 10 -10c46 0 79 76 103 172 l92 363c0 12 -10 22 -32 22c-8 0 -20 -2 -27 -5l-3 17Z"></path>
</defs>
<g stroke="currentColor" fill="currentColor" stroke-width="0" transform="matrix(1 0 0 -1 0 0)">
 <use xlink:href="#E2-STIXWEBNORMALI-1D449" x="0" y="0"></use>
 <use transform="scale(0.707)" xlink:href="#E2-STIXWEBNORMALI-1D45D" x="813" y="-213"></use>
 <use xlink:href="#E2-STIXWEBMAIN-3D" x="1299" y="0"></use>
<g transform="translate(2262,0)">
 <use xlink:href="#E2-STIXWEBMAIN-6D"></use>
 <use xlink:href="#E2-STIXWEBMAIN-69" x="778" y="0"></use>
 <use xlink:href="#E2-STIXWEBMAIN-6E" x="1057" y="0"></use>
</g>
 <use xlink:href="#E2-STIXWEBSIZE2-7B" x="3820" y="-394"></use>
<g transform="translate(4537,0)">
 <use xlink:href="#E2-STIXWEBNORMALI-1D449" x="0" y="0"></use>
 <use transform="scale(0.707)" xlink:href="#E2-STIXWEBVARIANTS-2032" x="1154" y="583"></use>
</g>
 <use xlink:href="#E2-STIXWEBMAIN-2286" x="5972" y="0"></use>
 <use xlink:href="#E2-STIXWEBNORMALI-1D449" x="6935" y="0"></use>
 <use xlink:href="#E2-STIXWEBMAIN-3A" x="7973" y="0"></use>
<g transform="translate(8530,0)">
 <use xlink:href="#E2-STIXWEBSIZE1-2211" x="127" y="-524"></use>
<g transform="translate(0,-1225)">
 <use transform="scale(0.707)" xlink:href="#E2-STIXWEBNORMALI-1D456" x="0" y="0"></use>
 <use transform="scale(0.707)" xlink:href="#E2-STIXWEBMAIN-2208" x="311" y="0"></use>
<g transform="translate(704,0)">
 <use transform="scale(0.707)" xlink:href="#E2-STIXWEBNORMALI-1D449" x="0" y="0"></use>
 <use transform="scale(0.574)" xlink:href="#E2-STIXWEBVARIANTS-2032" x="1005" y="446"></use>
</g>
</g>
</g>
<g transform="translate(10244,0)">
 <use xlink:href="#E2-STIXWEBNORMALI-1D45D" x="0" y="0"></use>
 <use transform="scale(0.707)" xlink:href="#E2-STIXWEBNORMALI-1D456" x="692" y="-213"></use>
</g>
 <use xlink:href="#E2-STIXWEBMAIN-2265" x="11332" y="0"></use>
 <use xlink:href="#E2-STIXWEBNORMALI-1D45D" x="12295" y="0"></use>
 <use xlink:href="#E2-STIXWEBSIZE2-7D" x="12785" y="-394"></use>
 <use xlink:href="#E2-STIXWEBMAIN-27F9" x="14780" y="0"></use>
<g transform="translate(17632,0)">
 <use xlink:href="#E2-STIXWEBNORMALI-1D45D" x="0" y="0"></use>
 <use xlink:href="#E2-STIXWEBMAIN-303" x="531" y="18"></use>
 <use transform="scale(0.707)" xlink:href="#E2-STIXWEBNORMALI-1D456" x="752" y="-311"></use>
</g>
 <use xlink:href="#E2-STIXWEBMAIN-3D" x="18763" y="0"></use>
<g transform="translate(19448,0)">
<g transform="translate(397,0)">
<rect stroke="none" width="3684" height="60" x="0" y="220"></rect>
<g transform="translate(1437,703)">
 <use xlink:href="#E2-STIXWEBNORMALI-1D45D" x="0" y="0"></use>
 <use transform="scale(0.707)" xlink:href="#E2-STIXWEBNORMALI-1D456" x="692" y="-213"></use>
</g>
<g transform="translate(60,-782)">
 <use xlink:href="#E2-STIXWEBOPERATORS-2211" x="0" y="-2"></use>
<g transform="translate(914,-298)">
 <use transform="scale(0.707)" xlink:href="#E2-STIXWEBNORMALI-1D457" x="0" y="0"></use>
 <use transform="scale(0.707)" xlink:href="#E2-STIXWEBMAIN-2208" x="389" y="0"></use>
<g transform="translate(760,0)">
 <use transform="scale(0.707)" xlink:href="#E2-STIXWEBNORMALI-1D449" x="0" y="0"></use>
 <use transform="scale(0.574)" xlink:href="#E2-STIXWEBNORMALI-1D45D" x="708" y="-185"></use>
</g>
</g>
<g transform="translate(2699,0)">
 <use xlink:href="#E2-STIXWEBNORMALI-1D45D" x="0" y="0"></use>
 <use transform="scale(0.707)" xlink:href="#E2-STIXWEBNORMALI-1D457" x="692" y="-213"></use>
</g>
</g>
</g>
</g>
</g>
</svg>