<svg xmlns:xlink="http://www.w3.org/1999/xlink" width="72.37ex" height="9.843ex" style="vertical-align: -6.338ex; margin-right: -0.029ex;" viewBox="0 -1508.9 31159.2 4237.8" role="img" focusable="false" xmlns="http://www.w3.org/2000/svg">
<defs>
<path stroke-width="1" id="E1-STIXWEBNORMALI-1D440" d="M1055 653l-4 -16h-17c-80 0 -96 -25 -105 -61l-127 -498c-2 -7 -2 -19 -2 -28c0 -19 19 -34 77 -34h19l-4 -16h-330l4 16h17c79 0 97 30 105 62l112 439h-6l-345 -517h-25l-94 517h-3l-109 -428c-3 -13 -5 -28 -5 -40c0 -21 17 -33 76 -33h20l-4 -16h-267l4 16h19 c79 0 98 33 108 73l119 475c4 17 5 29 5 38c0 20 -15 35 -77 35h-19l4 16h213l89 -493h4l333 493h215Z"></path>
<path stroke-width="1" id="E1-STIXWEBMAIN-70" d="M159 458v-77c44 55 88 79 144 79c97 0 167 -89 167 -213c0 -145 -91 -257 -210 -257c-42 0 -65 10 -101 43v-157c0 -63 13 -74 88 -75v-18h-242v17c59 6 70 17 70 69v468c0 47 -7 57 -41 57c-9 0 -16 0 -25 -1v16c55 17 91 30 144 51zM159 334v-246c0 -30 57 -66 104 -66 c72 0 121 75 121 185c0 117 -49 193 -123 193c-46 0 -102 -36 -102 -66Z"></path>
<path stroke-width="1" id="E1-STIXWEBMAIN-65" d="M408 164l16 -7c-39 -109 -109 -167 -209 -167c-118 0 -190 89 -190 227c0 141 81 243 207 243c62 0 107 -24 139 -69c20 -28 30 -60 34 -114h-308c5 -76 10 -115 46 -163c28 -37 65 -55 111 -55c67 0 105 31 154 105zM99 309h204c-11 81 -32 115 -98 115 c-56 0 -95 -40 -106 -115Z"></path>
<path stroke-width="1" id="E1-STIXWEBMAIN-72" d="M160 458v-92c50 72 78 94 120 94c34 0 55 -20 55 -53c0 -28 -15 -45 -39 -45c-13 0 -24 5 -40 20c-11 10 -20 15 -26 15c-28 0 -70 -50 -70 -82v-225c0 -57 17 -72 85 -75v-15h-240v15c64 12 71 19 71 69v250c0 44 -9 60 -34 60c-12 0 -21 -1 -35 -4v16 c59 19 95 33 148 54Z"></path>
<path stroke-width="1" id="E1-STIXWEBMAIN-2D" d="M285 194h-246v63h246v-63Z"></path>
<path stroke-width="1" id="E1-STIXWEBMAIN-47" d="M709 354v-18c-58 -5 -70 -15 -70 -80v-200c-55 -45 -151 -70 -254 -70c-102 0 -204 38 -270 107c-56 59 -83 136 -83 234c0 110 40 202 107 263c60 55 142 86 239 86c54 0 88 -8 133 -23c19 -7 34 -10 44 -10c21 0 39 14 45 33h22l8 -211h-23c-25 61 -41 87 -71 116 c-38 36 -90 55 -146 55c-69 0 -124 -25 -167 -69c-53 -53 -77 -144 -77 -243c0 -186 106 -298 263 -298c77 0 133 28 133 61v157c0 78 -10 86 -89 92v18h256Z"></path>
<path stroke-width="1" id="E1-STIXWEBMAIN-50" d="M16 662h259c100 0 172 -25 217 -63c33 -28 50 -69 50 -119c0 -53 -20 -98 -57 -131c-58 -52 -107 -61 -214 -61c-26 0 -42 1 -69 3v-179c0 -76 13 -89 94 -93v-19h-280v19c78 6 84 17 84 103v429c0 74 -10 86 -84 92v19zM202 589v-258c23 -2 41 -3 61 -3 c110 0 170 57 170 147c0 110 -60 150 -196 150c-29 0 -35 -9 -35 -36Z"></path>
<path stroke-width="1" id="E1-STIXWEBMAIN-55" d="M705 662v-19c-84 -8 -94 -32 -94 -127v-255c0 -97 -9 -151 -54 -202c-42 -48 -110 -73 -202 -73c-73 0 -129 15 -170 46c-55 41 -81 111 -81 217v310c0 67 -11 78 -90 84v19h283v-19c-80 -7 -91 -19 -91 -94v-312c0 -78 4 -123 44 -162c29 -28 71 -45 128 -45 c64 0 120 22 152 59c33 40 37 80 37 161v263c0 103 -13 125 -94 130v19h232Z"></path>
<path stroke-width="1" id="E1-STIXWEBMAIN-3D" d="M637 320h-589v66h589v-66zM637 120h-589v66h589v-66Z"></path>
<path stroke-width="1" id="E1-STIXWEBMAIN-32" d="M474 137l-54 -137h-391v12l178 189c94 99 130 175 130 260c0 91 -54 141 -139 141c-72 0 -107 -32 -147 -130l-21 5c21 117 85 199 208 199c113 0 185 -77 185 -176c0 -79 -39 -154 -128 -248l-165 -176h234c42 0 63 11 96 67Z"></path>
<path stroke-width="1" id="E1-STIXWEBMAIN-3A8" d="M724 690v-19c-39 -8 -47 -72 -47 -104c0 -30 4 -60 4 -90c0 -149 -125 -207 -257 -207v-159c0 -82 29 -90 103 -92v-19h-306v19c86 4 101 18 101 105v146c-132 0 -257 58 -257 207c0 30 4 60 4 90c0 32 -8 96 -47 104v19c117 0 155 -75 155 -181c0 -95 13 -202 134 -202 h11v255c0 70 -40 81 -101 81v19h306v-19c-63 0 -103 -8 -103 -81v-255h11c121 0 134 107 134 202c0 106 38 181 155 181Z"></path>
<path stroke-width="1" id="E1-STIXWEBNORMALI-1D441" d="M901 653l-4 -16h-18c-75 0 -98 -26 -107 -63l-144 -574h-24l-274 526h-6l-108 -448c-2 -8 -3 -16 -3 -27c0 -20 17 -35 76 -35h19l-4 -16h-266l4 16h18c75 0 98 28 106 62l126 509c-19 43 -62 50 -92 50h-19l4 16h200l236 -465h5l97 386c2 9 4 16 4 26 c0 20 -17 37 -76 37h-20l4 16h266Z"></path>
<path stroke-width="1" id="E1-STIXWEBMAIN-5A" d="M598 176l-25 -176h-563v15l437 609h-214c-71 0 -110 -11 -134 -35c-25 -26 -31 -43 -41 -98h-26l21 171h525v-15l-432 -609h252c56 0 92 10 117 28c33 23 42 51 60 110h23Z"></path>
<path stroke-width="1" id="E1-STIXWEBMAIN-52" d="M660 0h-162l-238 308l-56 -2v-194c0 -76 12 -88 89 -93v-19h-276v19c75 6 85 17 85 105v427c0 74 -8 86 -85 92v19h272c95 0 166 -24 209 -59c33 -27 49 -76 49 -120c0 -87 -56 -145 -181 -164l200 -253c29 -37 50 -43 94 -47v-19zM204 583v-240c96 2 131 9 177 34 c36 20 57 64 57 114c0 90 -59 134 -183 134c-34 0 -51 -7 -51 -42Z"></path>
<path stroke-width="1" id="E1-STIXWEBMAIN-4F" d="M688 331c0 -206 -135 -345 -327 -345c-194 0 -327 140 -327 348c0 203 132 342 327 342c196 0 327 -147 327 -345zM574 337c0 114 -34 208 -91 256c-36 30 -76 47 -123 47c-54 0 -104 -22 -143 -67c-43 -49 -69 -146 -69 -241c0 -119 29 -209 90 -265 c34 -31 78 -45 124 -45c50 0 94 15 129 48c55 53 83 147 83 267Z"></path>
<path stroke-width="1" id="E1-STIXWEBMAIN-33" d="M61 510l-16 4c29 95 92 162 196 162c93 0 156 -55 156 -137c0 -48 -26 -98 -93 -138c44 -19 62 -31 83 -53c28 -31 44 -77 44 -129c0 -53 -17 -102 -46 -140c-48 -64 -143 -93 -232 -93c-73 0 -112 21 -112 57c0 21 18 36 41 36c17 0 33 -6 61 -26c37 -26 58 -31 86 -31 c74 0 130 68 130 153c0 76 -35 125 -104 145c-22 7 -45 10 -102 10v14c38 13 64 24 84 36c49 28 81 73 81 134c0 68 -42 102 -108 102c-62 0 -108 -32 -149 -106Z"></path>
<path stroke-width="1" id="E1-STIXWEBMAIN-23DF" d="M1000 892v-12c0 -62 -36 -202 -169 -202h-219c-71 0 -81 -45 -101 -114h-22c-20 69 -30 114 -101 114h-219c-138 0 -169 147 -169 214h23c24 -77 22 -114 117 -114h260c48 0 90 -58 100 -100c8 43 53 100 100 100h260c94 0 93 37 117 114h23Z"></path>
<path stroke-width="1" id="E1-STIXWEBSIZE5-E034" d="M908 -261h-243c-310 0 -639 91 -690 443h56c22 -236 323 -308 517 -308h360v-135Z"></path>
<path stroke-width="1" id="E1-STIXWEBSIZE5-E036" d="M866 182h56c-51 -352 -380 -443 -690 -443h-243v135h360c194 0 495 72 517 308Z"></path>
<path stroke-width="1" id="E1-STIXWEBSIZE5-E035" d="M1854 -261h-501c-148 0 -371 -80 -404 -263h-54c-33 183 -250 263 -398 263h-507v135h390c245 0 434 -61 540 -291h4c106 230 301 291 546 291h384v-135Z"></path>
<path stroke-width="1" id="E1-STIXWEBMAIN-77" d="M694 450v-15c-20 -7 -25 -14 -41 -54l-138 -346c-16 -40 -21 -49 -28 -49s-9 5 -24 43l-91 236l-112 -240c-12 -26 -20 -39 -25 -39c-6 0 -14 13 -26 44l-135 342c-21 54 -30 61 -53 63v15h180v-15c-35 -4 -46 -12 -46 -33c0 -10 2 -20 6 -30l99 -261l91 199l-20 56 c-19 54 -32 65 -69 69v15h203v-15c-47 -7 -58 -14 -58 -35c0 -17 5 -29 17 -60l84 -224l90 222c11 27 17 51 17 67s-10 23 -44 30v15h123Z"></path>
<path stroke-width="1" id="E1-STIXWEBMAIN-69" d="M180 632c0 -29 -22 -51 -52 -51c-28 0 -50 22 -50 51c0 28 23 51 51 51c29 0 51 -23 51 -51zM253 0h-237v15c69 4 79 13 79 89v227c0 47 -8 63 -33 63c-9 0 -24 0 -42 -5v16l155 55l4 -4v-351c0 -74 8 -85 74 -90v-15Z"></path>
<path stroke-width="1" id="E1-STIXWEBMAIN-67" d="M470 388h-83c14 -32 19 -55 19 -84c0 -52 -16 -89 -52 -116c-32 -24 -69 -39 -104 -39c-6 0 -20 1 -38 3l-19 2c-27 -8 -60 -43 -60 -63c0 -16 24 -24 78 -27l129 -6c74 -3 121 -45 121 -107c0 -40 -19 -73 -60 -105c-52 -40 -128 -64 -200 -64c-96 0 -173 44 -173 97 c0 37 26 70 98 122c-42 20 -53 31 -53 53c0 20 13 40 46 69c15 13 29 26 43 40c-67 33 -93 71 -93 134c0 91 74 163 167 163c26 0 53 -5 80 -15l22 -8c20 -7 35 -10 55 -10h77v-39zM152 338v-3c0 -96 41 -161 103 -161c45 0 74 35 74 90c0 41 -11 86 -30 121 c-16 30 -42 47 -73 47c-46 0 -74 -35 -74 -94zM433 -64c0 37 -33 49 -124 49c-49 0 -128 6 -162 13c-40 -48 -49 -63 -49 -86c0 -44 57 -73 145 -73c114 0 190 39 190 97Z"></path>
<path stroke-width="1" id="E1-STIXWEBMAIN-68" d="M487 0h-212v15c58 6 68 18 68 87v198c0 70 -25 106 -74 106c-40 0 -70 -17 -112 -63v-241c0 -69 10 -81 68 -87v-15h-216v15c58 8 64 17 64 87v471c0 43 -8 51 -51 51c-4 0 -9 0 -12 -1v16l27 8c57 17 80 24 115 36l5 -3v-304c46 60 88 84 147 84c82 0 123 -54 123 -159 v-199c0 -69 6 -77 60 -87v-15Z"></path>
<path stroke-width="1" id="E1-STIXWEBMAIN-74" d="M266 77l13 -11c-33 -52 -71 -76 -121 -76c-58 0 -88 43 -88 127v301h-53c-3 2 -4 4 -4 7c0 6 6 12 17 19c26 15 59 52 97 107c6 9 14 18 20 28c5 0 7 -3 7 -13v-116h101v-32h-101v-286c0 -64 15 -90 52 -90c22 0 38 9 60 35Z"></path>
<path stroke-width="1" id="E1-STIXWEBMAIN-73" d="M156 301l104 -63c64 -39 88 -66 88 -123c0 -67 -64 -125 -140 -125c-21 0 -50 1 -73 9c-24 8 -35 9 -46 9c-12 0 -18 -2 -24 -12h-13v157h16c21 -97 58 -141 127 -141c51 0 83 33 83 74c0 31 -20 57 -53 75l-54 30c-83 46 -120 94 -120 145c0 79 56 123 138 123 c24 0 46 -1 67 -11c11 -5 21 -8 28 -8c4 0 8 1 16 10h11l5 -136h-15c-23 90 -53 123 -113 123c-43 0 -75 -21 -75 -68c0 -22 15 -51 43 -68Z"></path>
<path stroke-width="1" id="E1-STIXWEBMAIN-2B" d="M636 220h-261v-261h-66v261h-261v66h261v261h66v-261h261v-66Z"></path>
<path stroke-width="1" id="E1-STIXWEBMAIN-61" d="M442 66v-28c-30 -38 -56 -48 -90 -48c-37 0 -59 20 -64 73h-1c-53 -60 -102 -73 -145 -73c-62 0 -105 38 -105 104c0 52 31 91 70 117c30 20 67 39 180 81v54c0 62 -33 90 -78 90c-40 0 -70 -22 -70 -49c0 -18 6 -21 6 -42c0 -19 -20 -41 -46 -41c-21 0 -43 19 -43 46 c0 26 16 58 51 80c28 18 70 30 115 30c56 0 94 -16 118 -45s28 -50 28 -111v-191c0 -46 13 -66 31 -66c16 0 26 5 43 19zM287 127v141c-62 -22 -103 -43 -128 -66c-24 -22 -34 -46 -34 -77c0 -53 30 -77 69 -77c20 0 41 5 58 16c29 20 35 34 35 63Z"></path>
<path stroke-width="1" id="E1-STIXWEBMAIN-64" d="M491 42l-147 -52l-4 3v64c-34 -47 -72 -67 -128 -67c-111 0 -185 87 -185 215c0 142 93 255 208 255c40 0 67 -11 105 -43v156c0 41 -9 51 -46 51c-8 0 -14 0 -22 -1v16c64 17 99 27 147 44l5 -2v-567c0 -46 8 -57 44 -57c5 0 6 0 23 1v-16zM340 102v230 c0 53 -48 100 -102 100c-76 0 -125 -74 -125 -187c0 -123 54 -203 138 -203c31 0 56 11 74 32c9 10 15 21 15 28Z"></path>
<path stroke-width="1" id="E1-STIXWEBMAIN-6E" d="M485 0h-208l1 15c50 4 62 24 62 90v199c0 71 -24 101 -73 101c-33 0 -57 -12 -103 -57v-276c0 -39 14 -53 65 -57v-15h-211v15c51 4 62 20 62 79v243c0 49 -7 65 -35 65c-11 0 -22 -1 -29 -4v17c55 16 88 27 137 45l8 -3v-78h1c52 59 98 81 144 81c76 0 118 -55 118 -154 v-221c0 -54 12 -65 61 -70v-15Z"></path>
<path stroke-width="1" id="E1-STIXWEBMAIN-31" d="M394 0h-276v15c74 4 95 25 95 80v449c0 34 -9 49 -30 49c-10 0 -27 -5 -45 -12l-27 -10v14l179 91l9 -3v-597c0 -43 20 -61 95 -61v-15Z"></path>
<path stroke-width="1" id="E1-STIXWEBMAIN-41" d="M707 0h-255v19c36 0 43 2 55 9c8 4 14 15 14 24c0 15 -7 42 -19 70l-41 94h-262l-46 -114c-5 -13 -9 -30 -9 -42c0 -31 22 -41 70 -41v-19h-199v19c58 6 67 27 126 167l206 488h20l246 -563c28 -65 42 -86 94 -92v-19zM447 257l-116 275l-115 -275h231Z"></path>
<path stroke-width="1" id="E1-STIXWEBMAIN-6D" d="M775 0h-218v15c56 6 65 17 65 75v206c0 79 -20 112 -77 112c-47 0 -77 -18 -107 -61v-252c0 -65 15 -79 72 -80v-15h-224v15c57 4 68 10 68 71v211c0 69 -22 111 -65 111c-37 0 -86 -19 -106 -43c-7 -8 -13 -15 -13 -17v-278c0 -43 15 -53 68 -55v-15h-222v15 c56 1 70 15 70 73v248c0 49 -9 66 -35 66c-11 0 -19 -1 -32 -4v17c55 15 88 26 139 45l8 -3v-74h2c66 68 108 77 153 77c54 0 88 -27 106 -84c54 58 105 84 163 84c81 0 116 -62 116 -180v-203c0 -45 13 -58 43 -60l26 -2v-15Z"></path>
<path stroke-width="1" id="E1-STIXWEBMAIN-28" d="M304 -161l-12 -16c-158 90 -244 259 -244 429c0 185 87 329 247 424l9 -16c-139 -119 -170 -212 -170 -405c0 -186 30 -299 170 -416Z"></path>
<path stroke-width="1" id="E1-STIXWEBMAIN-76" d="M477 450v-15c-30 -3 -38 -11 -65 -78l-128 -321c-15 -37 -22 -50 -28 -50s-11 8 -18 26c-3 5 -4 12 -8 21l-120 287c-43 103 -53 113 -91 115v15h196v-15c-34 -3 -46 -10 -46 -27c0 -10 3 -23 9 -38l102 -256l99 259c4 10 6 20 6 30c0 19 -15 29 -47 32v15h139Z"></path>
<path stroke-width="1" id="E1-STIXWEBMAIN-29" d="M29 660l12 16c153 -92 244 -259 244 -429c0 -185 -88 -327 -247 -424l-9 16c142 117 170 211 170 405c0 187 -25 302 -170 416Z"></path>
<path stroke-width="1" id="E1-STIXWEBMAIN-63" d="M398 156l14 -9c-32 -62 -52 -91 -82 -115c-34 -28 -72 -42 -115 -42c-111 0 -190 93 -190 222c0 83 30 152 84 197c40 33 88 51 135 51c84 0 154 -47 154 -103c0 -23 -21 -42 -47 -42c-22 0 -40 17 -48 46l-6 22c-10 37 -23 48 -59 48c-81 0 -136 -70 -136 -174 c0 -115 63 -195 155 -195c57 0 93 24 141 94Z"></path>
<path stroke-width="1" id="E1-STIXWEBMAIN-22C5" d="M203 253c0 -32 -27 -60 -59 -60c-33 0 -61 30 -61 60s28 60 61 60c32 0 59 -28 59 -60Z"></path>
<path stroke-width="1" id="E1-STIXWEBMAIN-54" d="M593 492h-24c-22 110 -48 128 -154 128h-59v-509c0 -76 14 -88 96 -92v-19h-292v19c83 5 94 16 94 104v497h-60c-106 0 -133 -18 -153 -128h-24l7 170h562Z"></path>
<path stroke-width="1" id="E1-STIXWEBSIZE5-E02B" d="M634 -261h-635v135h635v-135Z"></path>
<path stroke-width="1" id="E1-STIXWEBMAIN-6F" d="M470 231c0 -139 -90 -241 -225 -241c-121 0 -216 99 -216 238s90 232 225 232c122 0 216 -91 216 -229zM380 204c0 68 -18 137 -50 178c-24 30 -52 50 -95 50c-69 0 -116 -59 -116 -159c0 -79 16 -151 53 -205c22 -32 54 -50 90 -50c74 0 118 70 118 186Z"></path>
</defs>
<g stroke="currentColor" fill="currentColor" stroke-width="0" transform="matrix(1 0 0 -1 0 0)">
 <use xlink:href="#E1-STIXWEBNORMALI-1D440" x="0" y="0"></use>
<g transform="translate(1005,-150)">
 <use transform="scale(0.707)" xlink:href="#E1-STIXWEBMAIN-70"></use>
 <use transform="scale(0.707)" xlink:href="#E1-STIXWEBMAIN-65" x="500" y="0"></use>
 <use transform="scale(0.707)" xlink:href="#E1-STIXWEBMAIN-72" x="945" y="0"></use>
 <use transform="scale(0.707)" xlink:href="#E1-STIXWEBMAIN-2D" x="1278" y="0"></use>
 <use transform="scale(0.707)" xlink:href="#E1-STIXWEBMAIN-47" x="1612" y="0"></use>
 <use transform="scale(0.707)" xlink:href="#E1-STIXWEBMAIN-50" x="2334" y="0"></use>
 <use transform="scale(0.707)" xlink:href="#E1-STIXWEBMAIN-55" x="2892" y="0"></use>
</g>
 <use xlink:href="#E1-STIXWEBMAIN-3D" x="4216" y="0"></use>
<g transform="translate(5457,0)">
<g transform="translate(120,0)">
<rect stroke="none" width="3391" height="60" x="0" y="220"></rect>
<g transform="translate(1072,676)">
 <use xlink:href="#E1-STIXWEBMAIN-32" x="0" y="0"></use>
 <use xlink:href="#E1-STIXWEBMAIN-3A8" x="500" y="0"></use>
</g>
<g transform="translate(60,-686)">
 <use xlink:href="#E1-STIXWEBNORMALI-1D441" x="0" y="0"></use>
<g transform="translate(851,-150)">
 <use transform="scale(0.707)" xlink:href="#E1-STIXWEBMAIN-5A"></use>
 <use transform="scale(0.707)" xlink:href="#E1-STIXWEBMAIN-65" x="612" y="0"></use>
 <use transform="scale(0.707)" xlink:href="#E1-STIXWEBMAIN-52" x="1057" y="0"></use>
 <use transform="scale(0.707)" xlink:href="#E1-STIXWEBMAIN-4F" x="1724" y="0"></use>
 <use transform="scale(0.707)" xlink:href="#E1-STIXWEBMAIN-2D" x="2447" y="0"></use>
 <use transform="scale(0.707)" xlink:href="#E1-STIXWEBMAIN-33" x="2780" y="0"></use>
</g>
</g>
</g>
<g transform="translate(12,-1210)">
 <use xlink:href="#E1-STIXWEBSIZE5-E034" x="24" y="0"></use>
 <use xlink:href="#E1-STIXWEBSIZE5-E035" x="893" y="0"></use>
 <use xlink:href="#E1-STIXWEBSIZE5-E036" x="2709" y="0"></use>
</g>
<g transform="translate(714,-2385)">
 <use transform="scale(0.707)" xlink:href="#E1-STIXWEBMAIN-77"></use>
 <use transform="scale(0.707)" xlink:href="#E1-STIXWEBMAIN-65" x="722" y="0"></use>
 <use transform="scale(0.707)" xlink:href="#E1-STIXWEBMAIN-69" x="1167" y="0"></use>
 <use transform="scale(0.707)" xlink:href="#E1-STIXWEBMAIN-67" x="1445" y="0"></use>
 <use transform="scale(0.707)" xlink:href="#E1-STIXWEBMAIN-68" x="1946" y="0"></use>
 <use transform="scale(0.707)" xlink:href="#E1-STIXWEBMAIN-74" x="2446" y="0"></use>
 <use transform="scale(0.707)" xlink:href="#E1-STIXWEBMAIN-73" x="2725" y="0"></use>
</g>
</g>
 <use xlink:href="#E1-STIXWEBMAIN-2B" x="9589" y="0"></use>
<g transform="translate(10774,0)">
<g transform="translate(120,0)">
<rect stroke="none" width="3391" height="60" x="0" y="220"></rect>
<g transform="translate(1072,676)">
 <use xlink:href="#E1-STIXWEBMAIN-32" x="0" y="0"></use>
 <use xlink:href="#E1-STIXWEBMAIN-3A8" x="500" y="0"></use>
</g>
<g transform="translate(60,-686)">
 <use xlink:href="#E1-STIXWEBNORMALI-1D441" x="0" y="0"></use>
<g transform="translate(851,-150)">
 <use transform="scale(0.707)" xlink:href="#E1-STIXWEBMAIN-5A"></use>
 <use transform="scale(0.707)" xlink:href="#E1-STIXWEBMAIN-65" x="612" y="0"></use>
 <use transform="scale(0.707)" xlink:href="#E1-STIXWEBMAIN-52" x="1057" y="0"></use>
 <use transform="scale(0.707)" xlink:href="#E1-STIXWEBMAIN-4F" x="1724" y="0"></use>
 <use transform="scale(0.707)" xlink:href="#E1-STIXWEBMAIN-2D" x="2447" y="0"></use>
 <use transform="scale(0.707)" xlink:href="#E1-STIXWEBMAIN-32" x="2780" y="0"></use>
</g>
</g>
</g>
<g transform="translate(12,-1210)">
 <use xlink:href="#E1-STIXWEBSIZE5-E034" x="24" y="0"></use>
 <use xlink:href="#E1-STIXWEBSIZE5-E035" x="893" y="0"></use>
 <use xlink:href="#E1-STIXWEBSIZE5-E036" x="2709" y="0"></use>
</g>
<g transform="translate(518,-2385)">
 <use transform="scale(0.707)" xlink:href="#E1-STIXWEBMAIN-67"></use>
 <use transform="scale(0.707)" xlink:href="#E1-STIXWEBMAIN-72" x="500" y="0"></use>
 <use transform="scale(0.707)" xlink:href="#E1-STIXWEBMAIN-61" x="833" y="0"></use>
 <use transform="scale(0.707)" xlink:href="#E1-STIXWEBMAIN-64" x="1278" y="0"></use>
 <use transform="scale(0.707)" xlink:href="#E1-STIXWEBMAIN-69" x="1779" y="0"></use>
 <use transform="scale(0.707)" xlink:href="#E1-STIXWEBMAIN-65" x="2057" y="0"></use>
 <use transform="scale(0.707)" xlink:href="#E1-STIXWEBMAIN-6E" x="2502" y="0"></use>
 <use transform="scale(0.707)" xlink:href="#E1-STIXWEBMAIN-74" x="3002" y="0"></use>
 <use transform="scale(0.707)" xlink:href="#E1-STIXWEBMAIN-73" x="3281" y="0"></use>
</g>
</g>
 <use xlink:href="#E1-STIXWEBMAIN-2B" x="14906" y="0"></use>
<g transform="translate(16091,0)">
<g transform="translate(2564,0)">
<g transform="translate(120,0)">
<rect stroke="none" width="3391" height="60" x="0" y="220"></rect>
<g transform="translate(822,676)">
 <use xlink:href="#E1-STIXWEBMAIN-31"></use>
 <use xlink:href="#E1-STIXWEBMAIN-32" x="500" y="0"></use>
 <use xlink:href="#E1-STIXWEBMAIN-3A8" x="1001" y="0"></use>
</g>
<g transform="translate(60,-686)">
 <use xlink:href="#E1-STIXWEBNORMALI-1D441" x="0" y="0"></use>
<g transform="translate(851,-150)">
 <use transform="scale(0.707)" xlink:href="#E1-STIXWEBMAIN-5A"></use>
 <use transform="scale(0.707)" xlink:href="#E1-STIXWEBMAIN-65" x="612" y="0"></use>
 <use transform="scale(0.707)" xlink:href="#E1-STIXWEBMAIN-52" x="1057" y="0"></use>
 <use transform="scale(0.707)" xlink:href="#E1-STIXWEBMAIN-4F" x="1724" y="0"></use>
 <use transform="scale(0.707)" xlink:href="#E1-STIXWEBMAIN-2D" x="2447" y="0"></use>
 <use transform="scale(0.707)" xlink:href="#E1-STIXWEBMAIN-31" x="2780" y="0"></use>
</g>
</g>
</g>
<g transform="translate(12,-1210)">
 <use xlink:href="#E1-STIXWEBSIZE5-E034" x="24" y="0"></use>
 <use xlink:href="#E1-STIXWEBSIZE5-E035" x="893" y="0"></use>
 <use xlink:href="#E1-STIXWEBSIZE5-E036" x="2709" y="0"></use>
</g>
</g>
<g transform="translate(0,-2385)">
 <use transform="scale(0.707)" xlink:href="#E1-STIXWEBMAIN-41"></use>
 <use transform="scale(0.707)" xlink:href="#E1-STIXWEBMAIN-64" x="722" y="0"></use>
 <use transform="scale(0.707)" xlink:href="#E1-STIXWEBMAIN-61" x="1223" y="0"></use>
 <use transform="scale(0.707)" xlink:href="#E1-STIXWEBMAIN-6D" x="1667" y="0"></use>
 <use transform="scale(0.707)" xlink:href="#E1-STIXWEBMAIN-73" x="2799" y="0"></use>
 <use transform="scale(0.707)" xlink:href="#E1-STIXWEBMAIN-74" x="3189" y="0"></use>
 <use transform="scale(0.707)" xlink:href="#E1-STIXWEBMAIN-61" x="3467" y="0"></use>
 <use transform="scale(0.707)" xlink:href="#E1-STIXWEBMAIN-74" x="3912" y="0"></use>
 <use transform="scale(0.707)" xlink:href="#E1-STIXWEBMAIN-65" x="4190" y="0"></use>
 <use transform="scale(0.707)" xlink:href="#E1-STIXWEBMAIN-28" x="4988" y="0"></use>
 <use transform="scale(0.707)" xlink:href="#E1-STIXWEBMAIN-6D" x="5322" y="0"></use>
 <use transform="scale(0.707)" xlink:href="#E1-STIXWEBMAIN-2B" x="6454" y="0"></use>
 <use transform="scale(0.707)" xlink:href="#E1-STIXWEBMAIN-76" x="7493" y="0"></use>
 <use transform="scale(0.707)" xlink:href="#E1-STIXWEBMAIN-2B" x="8347" y="0"></use>
 <use transform="scale(0.707)" xlink:href="#E1-STIXWEBMAIN-6D" x="9386" y="0"></use>
 <use transform="scale(0.707)" xlink:href="#E1-STIXWEBMAIN-61" x="10164" y="0"></use>
 <use transform="scale(0.707)" xlink:href="#E1-STIXWEBMAIN-73" x="10609" y="0"></use>
 <use transform="scale(0.707)" xlink:href="#E1-STIXWEBMAIN-74" x="10998" y="0"></use>
 <use transform="scale(0.707)" xlink:href="#E1-STIXWEBMAIN-65" x="11277" y="0"></use>
 <use transform="scale(0.707)" xlink:href="#E1-STIXWEBMAIN-72" x="11721" y="0"></use>
 <use transform="scale(0.707)" xlink:href="#E1-STIXWEBMAIN-29" x="12055" y="0"></use>
</g>
</g>
 <use xlink:href="#E1-STIXWEBMAIN-2B" x="25352" y="0"></use>
<g transform="translate(26537,0)">
<g transform="translate(120,0)">
<rect stroke="none" width="4368" height="60" x="0" y="220"></rect>
<g transform="translate(1218,677)">
 <use xlink:href="#E1-STIXWEBNORMALI-1D440" x="0" y="0"></use>
<g transform="translate(1005,-150)">
 <use transform="scale(0.707)" xlink:href="#E1-STIXWEBMAIN-61"></use>
 <use transform="scale(0.707)" xlink:href="#E1-STIXWEBMAIN-63" x="444" y="0"></use>
 <use transform="scale(0.707)" xlink:href="#E1-STIXWEBMAIN-74" x="889" y="0"></use>
</g>
</g>
<g transform="translate(60,-686)">
 <use xlink:href="#E1-STIXWEBNORMALI-1D441" x="0" y="0"></use>
<g transform="translate(851,-150)">
 <use transform="scale(0.707)" xlink:href="#E1-STIXWEBMAIN-50"></use>
 <use transform="scale(0.707)" xlink:href="#E1-STIXWEBMAIN-50" x="557" y="0"></use>
</g>
 <use xlink:href="#E1-STIXWEBMAIN-22C5" x="1962" y="0"></use>
<g transform="translate(2470,0)">
 <use xlink:href="#E1-STIXWEBNORMALI-1D441" x="0" y="0"></use>
<g transform="translate(851,-150)">
 <use transform="scale(0.707)" xlink:href="#E1-STIXWEBMAIN-54"></use>
 <use transform="scale(0.707)" xlink:href="#E1-STIXWEBMAIN-50" x="611" y="0"></use>
</g>
</g>
</g>
</g>
<g transform="translate(12,-1200)">
 <use xlink:href="#E1-STIXWEBSIZE5-E034" x="24" y="0"></use>
<g transform="translate(933.3537308396357,0) scale(0.7074616792712746,1)">
 <use xlink:href="#E1-STIXWEBSIZE5-E02B"></use>
</g>
 <use xlink:href="#E1-STIXWEBSIZE5-E035" x="1382" y="0"></use>
<g transform="translate(3227.091897176895,0) scale(0.7074616792712746,1)">
 <use xlink:href="#E1-STIXWEBSIZE5-E02B"></use>
</g>
 <use xlink:href="#E1-STIXWEBSIZE5-E036" x="3686" y="0"></use>
</g>
<g transform="translate(770,-2375)">
 <use transform="scale(0.707)" xlink:href="#E1-STIXWEBMAIN-61"></use>
 <use transform="scale(0.707)" xlink:href="#E1-STIXWEBMAIN-63" x="444" y="0"></use>
 <use transform="scale(0.707)" xlink:href="#E1-STIXWEBMAIN-74" x="889" y="0"></use>
 <use transform="scale(0.707)" xlink:href="#E1-STIXWEBMAIN-69" x="1167" y="0"></use>
 <use transform="scale(0.707)" xlink:href="#E1-STIXWEBMAIN-76" x="1446" y="0"></use>
 <use transform="scale(0.707)" xlink:href="#E1-STIXWEBMAIN-61" x="1946" y="0"></use>
 <use transform="scale(0.707)" xlink:href="#E1-STIXWEBMAIN-74" x="2391" y="0"></use>
 <use transform="scale(0.707)" xlink:href="#E1-STIXWEBMAIN-69" x="2669" y="0"></use>
 <use transform="scale(0.707)" xlink:href="#E1-STIXWEBMAIN-6F" x="2948" y="0"></use>
 <use transform="scale(0.707)" xlink:href="#E1-STIXWEBMAIN-6E" x="3448" y="0"></use>
 <use transform="scale(0.707)" xlink:href="#E1-STIXWEBMAIN-73" x="3949" y="0"></use>
</g>
</g>
</g>
</svg>